<svg xmlns="http://www.w3.org/2000/svg" xmlns:xlink="http://www.w3.org/1999/xlink" viewBox="0 0 416.1 300.32"><defs><style>.cls-1,.cls-14,.cls-19,.cls-3,.cls-6,.cls-8{fill:none;}.cls-2{fill:#d1e6ff;}.cls-3,.cls-6,.cls-8{stroke:#dbdbdb;}.cls-14,.cls-3,.cls-6,.cls-8{stroke-linecap:round;stroke-linejoin:round;}.cls-3{stroke-width:2.7px;}.cls-4{fill:#e6f1ff;opacity:0.27;}.cls-5{fill:url(#未命名的渐变_39);}.cls-6{stroke-width:2.3px;}.cls-7{fill:url(#未命名的渐变_39-2);}.cls-8{stroke-width:2.78px;}.cls-9{fill:#a4d3ff;stroke:#8fa0ff;stroke-width:1.38px;}.cls-11,.cls-19,.cls-9{stroke-miterlimit:10;}.cls-10,.cls-13{fill:#7f95f5;}.cls-10{opacity:0.38;}.cls-11{fill:#e0edfc;stroke:#87ceff;stroke-width:1.43px;}.cls-12{fill:#b5c5ff;opacity:0.22;}.cls-14{stroke:#aabeff;stroke-width:4px;}.cls-15{fill:#aabeff;opacity:0.5;}.cls-16{clip-path:url(#clip-path);}.cls-17{fill:#ccdaff;}.cls-18{fill:#b0bcff;}.cls-19{stroke:#d3f0ff;stroke-width:0.65px;}</style><linearGradient id="未命名的渐变_39" x1="182.52" y1="245.83" x2="228.18" y2="245.83" gradientUnits="userSpaceOnUse"><stop offset="0" stop-color="#94fffb" stop-opacity="0.2"/><stop offset="0.43" stop-color="#89c8f8" stop-opacity="0.25"/><stop offset="0.96" stop-color="#7f96f5" stop-opacity="0.3"/><stop offset="0.97" stop-color="#7f96f5" stop-opacity="0.43"/><stop offset="0.98" stop-color="#7f95f5" stop-opacity="0.68"/><stop offset="0.99" stop-color="#7f95f5" stop-opacity="0.85"/><stop offset="1" stop-color="#7f95f5" stop-opacity="0.96"/><stop offset="1" stop-color="#7f95f5"/></linearGradient><linearGradient id="未命名的渐变_39-2" x1="212.7" y1="137.44" x2="249.78" y2="137.44" gradientTransform="matrix(1, 0, -0.12, 1.02, -7.3, 1.94)" xlink:href="#未命名的渐变_39"/><clipPath id="clip-path" transform="translate(0 -1.33)"><rect class="cls-1" x="40.66" y="1.69" width="18.37" height="20.15" transform="matrix(0.3, -0.95, 0.95, 0.3, 23.8, 55.86)"/></clipPath></defs><g id="图层_2" data-name="图层 2"><g id="功能正在开发中..."><path class="cls-2" d="M13.46,203.75H2.7a2.69,2.69,0,1,0,0,5.38H13.46v10.76a2.69,2.69,0,1,0,5.38,0V209.13H29.6a2.68,2.68,0,0,0,2.7-2.69,2.69,2.69,0,0,0-2.7-2.69H18.84V193a2.72,2.72,0,0,0-.78-1.91,2.75,2.75,0,0,0-1.91-.79,2.69,2.69,0,0,0-2.69,2.7Z" transform="translate(0 -1.33)"/><rect class="cls-3" x="57.03" y="34.14" width="296.64" height="205.13" rx="21.01"/><path class="cls-4" d="M353.67,201v18.55a21,21,0,0,1-21,21H78a21,21,0,0,1-21-21V56.48a21,21,0,0,1,21-21H97.7s31.7,65.78,93.92,109.22S353.67,201,353.67,201Z" transform="translate(0 -1.33)"/><rect class="cls-3" x="72.65" y="48.76" width="265.4" height="176.17" rx="12.38"/><rect class="cls-3" x="150.28" y="239.27" width="110.14" height="28.91"/><line class="cls-3" x1="128.53" y1="268.17" x2="282.17" y2="268.17"/><rect class="cls-5" x="182.52" y="244.14" width="45.66" height="3.39" rx="1.4"/><rect class="cls-6" x="182.52" y="244.14" width="45.66" height="3.39" rx="1.4"/><path class="cls-7" d="M217.06,99.9H231l-32.92,83.28H184.14Z" transform="translate(0 -1.33)"/><path class="cls-8" d="M150.88,100.25h16l-37.5,39.88,37.5,42.12h-16l-37.27-42.12Z" transform="translate(0 -1.33)"/><path class="cls-8" d="M217.06,99.9H231l-32.92,83.28H184.14Z" transform="translate(0 -1.33)"/><path class="cls-8" d="M301.17,140.13,263.9,182.25h-16l37.5-42.12-37.5-39.88h16Z" transform="translate(0 -1.33)"/><path class="cls-9" d="M340.94,221.27a4.8,4.8,0,0,0-3.7-3.76,24.71,24.71,0,0,1-16.07-11.66,24.05,24.05,0,0,1-2.25-19.49,4.71,4.71,0,0,0-1.46-5,71.67,71.67,0,0,0-23.21-13.17,4.93,4.93,0,0,0-5.16,1.26,25.2,25.2,0,0,1-36.54,0,5,5,0,0,0-5.17-1.26,71.41,71.41,0,0,0-23.2,13.19,4.75,4.75,0,0,0-1.46,5,24,24,0,0,1-2.23,19.5,24.66,24.66,0,0,1-16.08,11.65,4.85,4.85,0,0,0-3.69,3.78,67.72,67.72,0,0,0,0,26.31,4.81,4.81,0,0,0,3.69,3.76A24.75,24.75,0,0,1,220.49,263a24,24,0,0,1,2.23,19.51,4.78,4.78,0,0,0,1.47,5,71.57,71.57,0,0,0,23.2,13.18,4.94,4.94,0,0,0,5.15-1.25,25.17,25.17,0,0,1,36.54,0,4.89,4.89,0,0,0,3.58,1.53,5.15,5.15,0,0,0,1.6-.26,71.47,71.47,0,0,0,23.2-13.18,4.77,4.77,0,0,0,1.47-5,23.92,23.92,0,0,1,2.24-19.5,24.61,24.61,0,0,1,16.08-11.65,4.87,4.87,0,0,0,3.69-3.77,67.77,67.77,0,0,0,0-26.32Z" transform="translate(0 -1.33)"/><path class="cls-10" d="M279.42,242.66c-38.08,18.79-70.85,10-70.85,10A24.62,24.62,0,0,1,220.49,263a24,24,0,0,1,2.23,19.51,4.78,4.78,0,0,0,1.47,5,71.57,71.57,0,0,0,23.2,13.18,4.94,4.94,0,0,0,5.15-1.25,25.17,25.17,0,0,1,36.54,0,4.89,4.89,0,0,0,3.58,1.53,5.15,5.15,0,0,0,1.6-.26,71.47,71.47,0,0,0,23.2-13.18,4.77,4.77,0,0,0,1.47-5,23.92,23.92,0,0,1,2.24-19.5,24.61,24.61,0,0,1,16.08-11.65,4.87,4.87,0,0,0,3.69-3.77,67.77,67.77,0,0,0,0-26.32h0a4.8,4.8,0,0,0-3.7-3.76,25,25,0,0,1-12.64-7.1S314.27,225.48,279.42,242.66Z" transform="translate(0 -1.33)"/><path class="cls-11" d="M308,278.88a59.55,59.55,0,0,1-14.32,8,34.34,34.34,0,0,0-44.48,0,59.46,59.46,0,0,1-14.33-8A31.4,31.4,0,0,0,231,256.13a33.37,33.37,0,0,0-18.46-14.58,53.69,53.69,0,0,1-.6-8,54.63,54.63,0,0,1,.6-8A33.32,33.32,0,0,0,231,211a31.62,31.62,0,0,0,3.81-22.75,59.59,59.59,0,0,1,14.32-8,34.35,34.35,0,0,0,44.49,0,59.59,59.59,0,0,1,14.32,8,31.56,31.56,0,0,0,3.8,22.75,33.26,33.26,0,0,0,18.45,14.57,55.45,55.45,0,0,1,.61,8,52,52,0,0,1-.59,8,33.37,33.37,0,0,0-18.46,14.58A31.66,31.66,0,0,0,308,278.88Z" transform="translate(0 -1.33)"/><path class="cls-12" d="M279.42,242.66c-38.08,18.79-70.85,10-70.85,10A24.62,24.62,0,0,1,220.49,263a24,24,0,0,1,2.23,19.51,4.78,4.78,0,0,0,1.47,5,71.57,71.57,0,0,0,23.2,13.18,4.94,4.94,0,0,0,5.15-1.25,25.17,25.17,0,0,1,36.54,0,4.89,4.89,0,0,0,3.58,1.53,5.15,5.15,0,0,0,1.6-.26,71.47,71.47,0,0,0,23.2-13.18,4.77,4.77,0,0,0,1.47-5,23.92,23.92,0,0,1,2.24-19.5,24.61,24.61,0,0,1,16.08-11.65,4.87,4.87,0,0,0,3.69-3.77,67.77,67.77,0,0,0,0-26.32h0a4.8,4.8,0,0,0-3.7-3.76,25,25,0,0,1-12.64-7.1S314.27,225.48,279.42,242.66Z" transform="translate(0 -1.33)"/><path class="cls-13" d="M271.7,210.41a22.86,22.86,0,1,0,0,45.72,24.57,24.57,0,0,0,4.15-.4,4.3,4.3,0,1,0-1.55-8.46,15.14,15.14,0,0,1-2.59.26,14.26,14.26,0,1,1,14.43-14.26,12.94,12.94,0,0,1-.27,2.54,4.3,4.3,0,0,0,3.51,5,4.25,4.25,0,0,0,.8.07,4.32,4.32,0,0,0,4.28-3.52,21.64,21.64,0,0,0,.4-4.09,22.52,22.52,0,0,0-6.78-16.16,23.19,23.19,0,0,0-16.38-6.7Z" transform="translate(0 -1.33)"/><circle class="cls-14" cx="401.2" cy="92.28" r="12.9"/><circle class="cls-15" cx="390.01" cy="105.25" r="19.5"/><g class="cls-16"><path class="cls-17" d="M48.16,20.28a1.05,1.05,0,0,1-1.76-.55l-.89-5a1,1,0,0,0-.57-.73L40.2,11.81a1,1,0,0,1-.05-1.76l4.67-2.2a.94.94,0,0,0,.53-.73l.61-5a1,1,0,0,1,1.71-.53L51.4,5.22a1.11,1.11,0,0,0,.92.28l5.11-.83a1,1,0,0,1,1.1,1.4l-2.31,4.44a.93.93,0,0,0,0,.9l2.55,4.45a1,1,0,0,1-1,1.41l-5.16-.85a1,1,0,0,0-.89.28l-3.54,3.58Z" transform="translate(0 -1.33)"/></g><path class="cls-18" d="M368.83,147.19l0,.08a.53.53,0,0,0,.22.67l.48.26a.46.46,0,0,0,.63-.22.54.54,0,0,0-.22-.68l-.48-.25a.44.44,0,0,0-.59.14Z" transform="translate(0 -1.33)"/><path class="cls-19" d="M383.14,140.8l-2.24,4.55a.52.52,0,0,0,0,.47l1.58,3.16-3.07-.61-1,1.12a.44.44,0,0,0-.42.14l-2.64,2.86-.86-5.89-3.73-2,2.8-1.43a.47.47,0,0,0,.25-.37l.19-1.47.45-.22.39-3,3.08,3.37a.46.46,0,0,0,.42.15Z" transform="translate(0 -1.33)"/><path class="cls-17" d="M373.72,136.3a.43.43,0,0,0-.09.22l-.75,5.87-5,2.55a.49.49,0,0,0-.26.44.53.53,0,0,0,.27.46l1.21.65a.46.46,0,0,0,.64-.22.53.53,0,0,0-.22-.67l-.35-.19,4.37-2.23a.51.51,0,0,0,.26-.37l.66-5.12,3.44,3.76a.5.5,0,0,0,.43.16l4.81-.8-2.23,4.55a.52.52,0,0,0,0,.47l2.32,4.63-4.83-1a.44.44,0,0,0-.42.14l-3.39,3.66-.75-5.15a.5.5,0,0,0-.26-.38l-1.27-.68a.44.44,0,0,0-.63.22.51.51,0,0,0,.22.67l1,.57.86,5.89a.51.51,0,0,0,.32.41.47.47,0,0,0,.49-.12l3.88-4.19,5.54,1.09a.44.44,0,0,0,.46-.19.53.53,0,0,0,0-.53l-2.65-5.3,2.56-5.22a.53.53,0,0,0,0-.53.47.47,0,0,0-.47-.21l-5.52.92-3.95-4.32a.46.46,0,0,0-.49-.13.44.44,0,0,0-.23.18Z" transform="translate(0 -1.33)"/></g></g></svg>