<svg xmlns="http://www.w3.org/2000/svg" xmlns:xlink="http://www.w3.org/1999/xlink" viewBox="0 0 383.75 284.16"><defs><style>.cls-1,.cls-12,.cls-15,.cls-4,.cls-6,.cls-7{fill:none;}.cls-2{fill:#aabeff;opacity:0.5;}.cls-3{fill:#e6f1ff;opacity:0.27;}.cls-4,.cls-6,.cls-7{stroke:#dbdbdb;}.cls-12,.cls-15,.cls-4,.cls-6,.cls-7{stroke-linecap:round;stroke-linejoin:round;}.cls-4{stroke-width:2.78px;}.cls-5{fill:url(#未命名的渐变_39);}.cls-6{stroke-width:1.87px;}.cls-7{stroke-width:2.76px;}.cls-8{fill:#a4d3ff;stroke:#8fa0ff;stroke-width:1.38px;}.cls-10,.cls-8{stroke-miterlimit:10;}.cls-13,.cls-9{fill:#7f95f5;}.cls-9{opacity:0.38;}.cls-10{fill:#e0edfc;stroke:#87ceff;stroke-width:1.43px;}.cls-11{fill:#b5c5ff;opacity:0.22;}.cls-12{stroke:#fff;stroke-width:3.42px;opacity:0.57;}.cls-14{fill:#d1e6ff;}.cls-15{stroke:#bacaff;stroke-width:3.89px;opacity:0.65;}.cls-16{clip-path:url(#clip-path);}.cls-17{fill:#ccdaff;}</style><linearGradient id="未命名的渐变_39" x1="127.09" y1="106.53" x2="108.26" y2="73.92" gradientTransform="translate(-11.77 11.72) rotate(-4.7)" gradientUnits="userSpaceOnUse"><stop offset="0" stop-color="#94fffb" stop-opacity="0.2"/><stop offset="0.43" stop-color="#89c8f8" stop-opacity="0.25"/><stop offset="0.96" stop-color="#7f96f5" stop-opacity="0.3"/><stop offset="0.97" stop-color="#7f96f5" stop-opacity="0.43"/><stop offset="0.98" stop-color="#7f95f5" stop-opacity="0.68"/><stop offset="0.99" stop-color="#7f95f5" stop-opacity="0.85"/><stop offset="1" stop-color="#7f95f5" stop-opacity="0.96"/><stop offset="1" stop-color="#7f95f5"/></linearGradient><clipPath id="clip-path"><polygon class="cls-1" points="353.38 56.11 380.65 64.56 388.38 39.81 361.12 31.36 353.38 56.11"/></clipPath></defs><g id="图层_2" data-name="图层 2"><g id="加载失败"><ellipse class="cls-2" cx="19.42" cy="192.12" rx="19.31" ry="19.54" transform="translate(-130.16 70) rotate(-45)"/><path class="cls-3" d="M194.44,178l-10.87,11.82a10.58,10.58,0,0,1-15.59-.13l-1.72-1.94-5.74-5.33c-14.33-10.8-32.38-6.66-44.75,6.33l-50.6,55.16.72,8.68,2.69,6,6.26,3.16,140.9-11.57Z"/><path class="cls-4" d="M65.17,243.88l50.6-55.16a35.34,35.34,0,0,1,46.85-3.85h0l8.21,6.44a9.07,9.07,0,0,0,12.26-1L194.44,178"/><path class="cls-5" d="M94.13,93.55a18.82,18.82,0,1,0,17.22-20.31A18.82,18.82,0,0,0,94.13,93.55Z"/><path class="cls-6" d="M94.13,93.55a18.82,18.82,0,1,0,17.22-20.31A18.82,18.82,0,0,0,94.13,93.55Z"/><path class="cls-4" d="M215.74,250.13,76.51,261.57a9.85,9.85,0,0,1-10.62-9L49.75,56.1a9.84,9.84,0,0,1,9-10.62L188.38,34.83l28.05,80-27.26,45.26Z"/><path class="cls-3" d="M199.91,165.68l38.89-24.62c13-8.6,31.18-6.09,41.8,6.32L329.67,210l-6.41,44.58-2.95,5.76-4.88,2.55-109-14.47-7.16-82.24,1.61-1.25"/><path class="cls-7" d="M200.91,164.9l36-21.74c12.26-10.24,31.45-6.94,42.06,5.47l50.43,61.31"/><path class="cls-4" d="M341.77,48.18,233.61,33,242.26,121l-35.59,36.93.48,5.5,7.52,85.88L312.16,263a9.85,9.85,0,0,0,11.1-8.41l7.3-52.94L350.18,59.28A9.84,9.84,0,0,0,341.77,48.18Z"/><path class="cls-8" d="M284,161H189.85A18.84,18.84,0,0,0,171,179.86v84.77a18.84,18.84,0,0,0,18.83,18.84H284a18.85,18.85,0,0,0,18.84-18.84V179.86A18.85,18.85,0,0,0,284,161Z"/><path class="cls-9" d="M171,252v12.59a18.84,18.84,0,0,0,18.83,18.84H284a18.85,18.85,0,0,0,18.84-18.84v-81.2s-14.69,29.33-49.55,48.41S171,252,171,252Z"/><rect class="cls-10" x="180.43" y="170.44" width="113.02" height="103.61" rx="9.42"/><path class="cls-11" d="M259,231.29c27.39-13.06,34.46-37.35,34.46-37.35v70.69a9.41,9.41,0,0,1-9.42,9.42H189.85a9.41,9.41,0,0,1-9.42-9.42l.56-12.87C200.21,249.36,231.62,244.36,259,231.29Z"/><path class="cls-12" d="M186,195v-9.36a9.41,9.41,0,0,1,9.42-9.42h39.82"/><path class="cls-13" d="M265.2,189.28a9.42,9.42,0,1,0,9.42,9.42,9.41,9.41,0,0,0-9.42-9.42Z"/><path class="cls-13" d="M208.69,208.12a9.42,9.42,0,1,0-9.42-9.42,9.41,9.41,0,0,0,9.42,9.42Z"/><path class="cls-13" d="M272.23,246.21a67.05,67.05,0,0,0-70.62,0,5.05,5.05,0,0,0-1.66,6.54,4.14,4.14,0,0,0,5.94,1.82,59,59,0,0,1,62.05,0,4,4,0,0,0,2.14.62,4.3,4.3,0,0,0,3.81-2.45,5.06,5.06,0,0,0-1.66-6.53Z"/><path class="cls-14" d="M367.47,75.07l-1.39-.6.59-1.36a2.45,2.45,0,0,0-4.5-1.93l-.59,1.37-1.39-.6a2.39,2.39,0,1,0-1.88,4.39l1.39.6-.58,1.36a2.44,2.44,0,0,0,4.49,1.93l.59-1.36,1.39.6a2.39,2.39,0,1,0,1.88-4.4Z"/><path class="cls-14" d="M41.58,6.38l-5-5.72A1.89,1.89,0,0,0,35.29,0a1.94,1.94,0,0,0-1.38.47,1.89,1.89,0,0,0-.18,2.68l5,5.73-5.72,5a1.9,1.9,0,1,0,2.49,2.86l5.73-5,5,5.73a1.9,1.9,0,0,0,2.68.19A1.9,1.9,0,0,0,49.05,15l-5-5.72,5.73-5A1.9,1.9,0,0,0,50,1.58,1.9,1.9,0,0,0,47.3,1.4Z"/><circle class="cls-15" cx="34.9" cy="205.82" r="10.65"/><g class="cls-16"><path class="cls-17" d="M368.49,60a1.5,1.5,0,0,1-2.5-.77l-1.25-7a1.4,1.4,0,0,0-.82-1L357.21,48a1.35,1.35,0,0,1-.07-2.47l6.62-3.11a1.34,1.34,0,0,0,.75-1l.87-7a1.42,1.42,0,0,1,2.42-.75l5.29,5.07a1.61,1.61,0,0,0,1.29.4L381.63,38a1.41,1.41,0,0,1,1.57,2l-3.28,6.26a1.28,1.28,0,0,0,0,1.27l3.61,6.27a1.36,1.36,0,0,1-1.47,2l-7.32-1.2a1.44,1.44,0,0,0-1.27.39l-5,5Z"/></g></g></g></svg>