<svg xmlns="http://www.w3.org/2000/svg" xmlns:xlink="http://www.w3.org/1999/xlink" width="275.574" height="260.308" viewBox="0 0 275.574 260.308">
  <defs>
    <style>
      .cls-1, .cls-15, .cls-16, .cls-17, .cls-8 {
        fill: none;
      }

      .cls-2 {
        fill: #aabeff;
        opacity: 0.5;
      }

      .cls-3 {
        clip-path: url(#clip-path);
      }

      .cls-4 {
        fill: #ccdaff;
      }

      .cls-5 {
        fill: #bacaff;
        opacity: 0.65;
      }

      .cls-6 {
        fill: #d1e6ff;
      }

      .cls-7 {
        fill: #e6f1ff;
        opacity: 0.27;
      }

      .cls-8 {
        stroke: #dbdbdb;
      }

      .cls-15, .cls-16, .cls-17, .cls-8 {
        stroke-linecap: round;
        stroke-width: 3px;
      }

      .cls-16, .cls-17, .cls-8 {
        stroke-linejoin: round;
      }

      .cls-9 {
        fill: url(#linear-gradient);
      }

      .cls-10 {
        fill: #a4d3ff;
        stroke: #8fa0ff;
        stroke-width: 1.38px;
      }

      .cls-10, .cls-12, .cls-15 {
        stroke-miterlimit: 10;
      }

      .cls-11, .cls-14 {
        fill: #7f95f5;
      }

      .cls-11 {
        opacity: 0.3;
      }

      .cls-12 {
        fill: #e0edfc;
        stroke: #87ceff;
        stroke-width: 1.26px;
      }

      .cls-13 {
        fill: url(#linear-gradient-2);
      }

      .cls-15 {
        stroke: #fff;
        opacity: 0.36;
      }

      .cls-16, .cls-17 {
        stroke: #7f95f5;
      }

      .cls-17 {
        stroke-dasharray: 0 0 9.89 9.89;
      }
    </style>
    <clipPath id="clip-path">
      <path id="路径_265" data-name="路径 265" class="cls-1" d="M296.359,79.709,284.42,75.225,288.6,64.3l11.939,4.492Z" transform="translate(-284.42 -64.3)"/>
    </clipPath>
    <linearGradient id="linear-gradient" y1="0.5" x2="1" y2="0.5" gradientUnits="objectBoundingBox">
      <stop offset="0" stop-color="#94fffb" stop-opacity="0.2"/>
      <stop offset="0.3" stop-color="#8bd6f8" stop-opacity="0.239"/>
      <stop offset="0.89" stop-color="#7f97f5" stop-opacity="0.302"/>
      <stop offset="1" stop-color="#7f96f5" stop-opacity="0.302"/>
    </linearGradient>
    <linearGradient id="linear-gradient-2" y1="0.5" x2="1" y2="0.5" gradientUnits="objectBoundingBox">
      <stop offset="0" stop-color="#94c4ff"/>
      <stop offset="0.2" stop-color="#8eb7fc"/>
      <stop offset="0.7" stop-color="#839ef7"/>
      <stop offset="1" stop-color="#7f95f5"/>
    </linearGradient>
  </defs>
  <g id="_能正在开发中..." transform="translate(0 1.5)">
    <g id="组_1585" data-name="组 1585" transform="translate(0 0)">
      <ellipse id="椭圆_212" data-name="椭圆 212" class="cls-2" cx="15.014" cy="14.902" rx="15.014" ry="14.902" transform="matrix(0.702, -0.712, 0.712, 0.702, 233.269, 23.982)"/>
      <g id="组_1581" data-name="组 1581" class="cls-3" transform="translate(230.684 50.506)">
        <path id="路径_264" data-name="路径 264" class="cls-4" d="M290.356,77.167,290,74a.634.634,0,0,0-.338-.491l-2.906-1.586a.607.607,0,0,1,.04-1.111l3.019-1.24a.593.593,0,0,0,.362-.443l.6-3.124a.637.637,0,0,1,1.1-.274l2.214,2.407a.674.674,0,0,0,.564.209L297.923,68a.635.635,0,0,1,.644.934l-1.65,2.729a.6.6,0,0,0-.024.572l1.465,2.922a.618.618,0,0,1-.717.861l-3.236-.725a.635.635,0,0,0-.58.145l-2.391,2.141a.667.667,0,0,1-1.095-.411h0Z" transform="translate(-284.809 -64.536)"/>
      </g>
      <ellipse id="椭圆_213" data-name="椭圆 213" class="cls-5" cx="6.207" cy="6.279" rx="6.207" ry="6.279" transform="translate(0 39.612) rotate(-22.09)"/>
      <path id="路径_266" data-name="路径 266" class="cls-6" d="M24.434,246.018l-2.045-5.394a1.44,1.44,0,0,0-1.86-.837,1.446,1.446,0,0,0-.837,1.868l2.045,5.394-5.394,2.045a1.441,1.441,0,1,0,1.014,2.7l5.394-2.045,2.045,5.394a1.44,1.44,0,0,0,1.86.837,1.447,1.447,0,0,0,.837-1.868l-2.045-5.394,5.394-2.045a1.44,1.44,0,0,0,.837-1.86,1.447,1.447,0,0,0-1.868-.837l-5.394,2.045Z" transform="translate(-1.114 -48.107)"/>
      <path id="路径_267" data-name="路径 267" class="cls-7" d="M205.426,215.722v32.049H92.55v-38.8a72.532,72.532,0,0,1,6.787-29.827s1.827,22.558,39.568,31.381,66.53,5.2,66.53,5.2Z" transform="translate(-16.237 -36.295)"/>
      <path id="路径_268" data-name="路径 268" class="cls-8" d="M159.571,117.794c27.275,0,45.856,32.693,45.856,59.968v38.8H92.55v-38.8c0-27.275,18.581-59.968,45.856-59.968-27.275,0-45.856-32.693-45.856-59.968V19.03H205.426v38.8c0,27.275-18.581,59.968-45.856,59.968Z" transform="translate(-16.237 -4.925)"/>
      <path id="路径_269" data-name="路径 269" class="cls-8" d="M211.744,15.6H77.7a7.046,7.046,0,1,1,0-14.092H211.744a7.046,7.046,0,1,1,0,14.092Zm0,211.446H77.7a7.046,7.046,0,1,1,0-14.092H211.744a7.046,7.046,0,1,1,0,14.092Z" transform="translate(-11.966 -1.51)"/>
      <path id="路径_270" data-name="路径 270" class="cls-9" d="M179.239,119a5.289,5.289,0,0,1,0-10.578c9.7,0,18.83-12.494,18.83-22.179a5.289,5.289,0,0,1,10.578,0c0,14.837-13.122,32.766-29.409,32.766Z" transform="translate(-32.127 -17.057)"/>
      <g id="组_1583" data-name="组 1583" transform="translate(132.057 131.43)">
        <path id="路径_271" data-name="路径 271" class="cls-10" d="M283.731,169.94c-12.036-12.019-55.074-.974-78.018,21.986a76.051,76.051,0,0,0-7.173,8.252l-12.921-4.162a2.873,2.873,0,0,0-3.22,1.079l-19.973,28.5a2.854,2.854,0,0,0,1.473,4.355l27.227,8.8a43.506,43.506,0,0,0,23.741,23.765l8.783,27.211a2.823,2.823,0,0,0,4.323,1.449l28.571-20.006a2.853,2.853,0,0,0,1.079-3.2l-4.146-12.816a76.474,76.474,0,0,0,8.284-7.205c22.928-22.944,34.5-65.483,21.97-78Zm-41.09,41.267a18.074,18.074,0,1,1,25.56,0A18.07,18.07,0,0,1,242.641,211.207Z" transform="translate(-161.91 -165.023)"/>
        <path id="路径_272" data-name="路径 272" class="cls-11" d="M228.568,223.065c-39.633,5.281-55.935-5.458-55.935-5.458l-10.208,14.571a2.854,2.854,0,0,0,1.473,4.355l27.227,8.8A43.506,43.506,0,0,0,214.866,269.1l8.783,27.211a2.823,2.823,0,0,0,4.323,1.449l28.571-20.006a2.853,2.853,0,0,0,1.079-3.2l-4.146-12.816a76.479,76.479,0,0,0,8.284-7.205c14.853-14.861,24.941-37.95,26.8-55.766,0,0-20.352,19.031-59.984,24.321Z" transform="translate(-161.91 -171.6)"/>
        <path id="路径_273" data-name="路径 273" class="cls-12" d="M260.908,214.918a18.074,18.074,0,1,1,25.56,0A18.07,18.07,0,0,1,260.908,214.918Z" transform="translate(-180.177 -168.735)"/>
        <g id="组_1582" data-name="组 1582" transform="translate(7.417 87.974)">
          <path id="路径_274" data-name="路径 274" class="cls-13" d="M176.312,305.323a4.8,4.8,0,0,1-3.51-1.151c-1.852-1.852-1.449-6.207,1.095-11.955a50.225,50.225,0,0,1,9.339-14.024c2.27-2.27,4.2-3.373,5.917-3.373,2.286,0,4.162,1.94,6.336,4.186.394.411.805.829,1.224,1.256.411.411.829.813,1.232,1.2,2.246,2.174,4.194,4.041,4.21,6.32.016,1.723-1.087,3.679-3.373,5.957-5.466,5.466-16.238,11.585-22.469,11.585Z" transform="translate(-171.226 -274.401)"/>
          <path id="路径_275" data-name="路径 275" class="cls-14" d="M189.041,275.137c2.109,0,3.929,1.884,6.038,4.057.4.411.805.837,1.232,1.256l1.232,1.208c2.182,2.1,4.066,3.921,4.082,6.022.016,1.61-1.047,3.462-3.244,5.66-5.41,5.41-16.037,11.456-22.171,11.456a4.4,4.4,0,0,1-3.212-1.03c-3.856-3.856,3.7-18.653,10.425-25.383,2.182-2.182,4.025-3.244,5.619-3.244m0-.837c-1.723,0-3.7.974-6.215,3.494-6.762,6.762-14.885,22.115-10.425,26.575a5.226,5.226,0,0,0,3.808,1.28c6.424,0,17.349-6.287,22.767-11.705,6.762-6.762,2.391-9.628-2.069-14.072-2.8-2.8-4.967-5.563-7.857-5.563h0Z" transform="translate(-171.123 -274.3)"/>
        </g>
        <path id="路径_276" data-name="路径 276" class="cls-15" d="M222.32,197.707S234.339,185.945,249,180.06a121.308,121.308,0,0,1,30.463-7.64" transform="translate(-173.687 -166.465)"/>
      </g>
      <g id="组_1584" data-name="组 1584" transform="translate(65.182 225.211)">
        <path id="路径_277" data-name="路径 277" class="cls-16" d="M78.69,296.81a22.248,22.248,0,0,0,2.89,2.793" transform="translate(-78.69 -284.496)"/>
        <path id="路径_278" data-name="路径 278" class="cls-17" d="M90.64,300.84a28.342,28.342,0,0,0,17.067,2.061c18.218-3.309,13.235-19.176,7.366-20.682s-12.752-1.272-14.8,7.568,13.412,20.448,25.093,18.436c6.8-1.167,13.96-6.577,18.758-10.9" transform="translate(-81.02 -281.514)"/>
        <path id="路径_279" data-name="路径 279" class="cls-16" d="M160.67,297.046c1.747-1.731,2.777-2.906,2.777-2.906" transform="translate(-94.672 -283.976)"/>
      </g>
    </g>
  </g>
</svg>
