<svg xmlns="http://www.w3.org/2000/svg" xmlns:xlink="http://www.w3.org/1999/xlink" viewBox="0 0 361.67 302.1"><defs><style>.cls-1,.cls-11,.cls-12,.cls-15,.cls-16,.cls-2,.cls-20,.cls-22,.cls-5,.cls-8{fill:none;}.cls-2,.cls-5{stroke:#dbdbdb;}.cls-11,.cls-16,.cls-2,.cls-5,.cls-8{stroke-linecap:round;stroke-linejoin:round;}.cls-2{stroke-width:2.85px;}.cls-3{fill:#e6f1ff;opacity:0.27;}.cls-4{fill:url(#未命名的渐变_39);}.cls-5{stroke-width:3.31px;}.cls-13,.cls-6{fill:#a4d3ff;}.cls-12,.cls-13,.cls-15,.cls-6{stroke:#8fa0ff;}.cls-12,.cls-13,.cls-15,.cls-20,.cls-22,.cls-6,.cls-9{stroke-miterlimit:10;}.cls-12,.cls-6{stroke-width:2.05px;}.cls-7{fill:#7f95f5;opacity:0.38;}.cls-11,.cls-16,.cls-8{stroke:#fff;}.cls-8{stroke-width:2.74px;}.cls-17,.cls-20,.cls-8{opacity:0.5;}.cls-9{fill:#e0edfc;stroke:#87ceff;stroke-width:1.37px;}.cls-10{fill:#b5c5ff;opacity:0.22;}.cls-11{stroke-width:3.08px;opacity:0.79;}.cls-13,.cls-15{stroke-width:2.6px;}.cls-14{fill:#749af2;opacity:0.49;}.cls-16{stroke-width:3.79px;opacity:0.57;}.cls-17{fill:#aabeff;}.cls-18{clip-path:url(#clip-path);}.cls-19{fill:#ccdaff;}.cls-20{stroke:#aabeff;stroke-width:3.83px;}.cls-21{fill:#b0bcff;}.cls-22{stroke:#d3f0ff;stroke-width:1.06px;}.cls-23{fill:#d1e6ff;}</style><linearGradient id="未命名的渐变_39" x1="145.56" y1="81.59" x2="171.14" y2="81.59" gradientUnits="userSpaceOnUse"><stop offset="0" stop-color="#94fffb" stop-opacity="0.2"/><stop offset="0.43" stop-color="#89c8f8" stop-opacity="0.25"/><stop offset="0.96" stop-color="#7f96f5" stop-opacity="0.3"/><stop offset="0.97" stop-color="#7f96f5" stop-opacity="0.43"/><stop offset="0.98" stop-color="#7f95f5" stop-opacity="0.68"/><stop offset="0.99" stop-color="#7f95f5" stop-opacity="0.85"/><stop offset="1" stop-color="#7f95f5" stop-opacity="0.96"/><stop offset="1" stop-color="#7f95f5"/></linearGradient><clipPath id="clip-path"><polygon class="cls-1" points="307.07 34.94 292.6 41.39 286.76 28.09 301.24 21.64 307.07 34.94"/></clipPath></defs><g id="图层_2" data-name="图层 2"><g id="您的网络不太顺畅"><path class="cls-2" d="M33.8,140.64A134.1,134.1,0,1,0,167.9,6.54,134.1,134.1,0,0,0,33.8,140.64Z"/><path class="cls-3" d="M36,164.72C53.72,244.84,118,273.56,168.36,273.56a134.2,134.2,0,0,0,129.8-167.9s-12.56,46.2-97,77.45C139.35,206,36,164.72,36,164.72"/><path class="cls-2" d="M136,230.05c-38.33-19.14-92.61-16-57.47-89.41C90.78,115,67.66,102.35,40.66,98.34a134,134,0,0,0,119,176.13c1.28-14.48-2-33.55-23.69-44.42Z"/><path class="cls-2" d="M226.56,143.65s15.95,19.15-9.59,25.54-41.49,19.15-35.13,44.69,0,25.54,35.13,22.34,44.69-35.13,44.69-41.49,9.59-41.49-9.59-51.08-22.35-16-25.51,0Z"/><path class="cls-2" d="M174.37,6.7c-2.12-.08-4.27-.16-6.43-.16A134,134,0,0,0,53.72,70.38c20.57-.24,37.71-9.87,42.56-22.85,3.59.35,7.25.54,11,.54,22.85,0,43.11-6.7,55.9-17.06a24.05,24.05,0,0,0,14.33,4.31,3.08,3.08,0,0,0,.62,0c2.08,10,11.4,37.87,50.31,36.91,0,0,23.69-.58,34.71,47.38,0,0,24.69,9.86,31.55-22.65A134.1,134.1,0,0,0,174.37,6.7Z"/><path class="cls-4" d="M145.56,81.59A11,11,0,0,0,152,91.26a14.38,14.38,0,0,0,12.79,0,10.51,10.51,0,0,0,0-19.35,14.45,14.45,0,0,0-12.79,0,11,11,0,0,0-6.39,9.68Z"/><path class="cls-2" d="M145.56,81.59A11,11,0,0,0,152,91.26a14.38,14.38,0,0,0,12.79,0,10.51,10.51,0,0,0,0-19.35,14.45,14.45,0,0,0-12.79,0,11,11,0,0,0-6.39,9.68Z"/><path class="cls-2" d="M182.66,85.45c3.56,2.6,7.7,3,9.26.84s-.08-6-3.63-8.56-7.71-3-9.26-.83.07,6,3.63,8.55Z"/><path class="cls-5" d="M294.85,83.61C315.22,80.85,328.09,81.76,330,87c4.82,13.53-64.71,50.67-155.31,83S6.71,217.48,1.89,204c-2.18-6.11,10.82-17,34.07-30.16"/><path class="cls-6" d="M144,225.51q32.33-25.42,69.46-16.14,36.25,9,52.73,45A9.06,9.06,0,0,1,260.46,267l-4.34,1.22a7.63,7.63,0,0,1-9-4.33q-11.79-26.75-38.84-33.49-25.84-6.45-48.2,9.89a11,11,0,0,1-14.17-.92l-2.45-2.39a7.61,7.61,0,0,1-.14-10.76,9.32,9.32,0,0,1,.74-.67Z"/><path class="cls-7" d="M177.31,231.2c6.05-1.47-11.67,5-17.26,9.05a11,11,0,0,1-14.17-.92l-2.45-2.39a7.61,7.61,0,0,1-.14-10.76,9.32,9.32,0,0,1,.74-.67h0c1.93-1.51,3.87-2.94,5.82-4.27,0,0-1.77,8.16,7.26,10.59C165.25,234,169,233.21,177.31,231.2Z"/><path class="cls-7" d="M261.66,245.61c2.61,3.15,3,5.31,4.56,8.8A9.06,9.06,0,0,1,260.46,267l-4.34,1.22a7.63,7.63,0,0,1-9-4.33q-9.22-20.93-27.79-29.61s19.35,10.47,27.16,11.73C252.27,246.91,261.66,245.61,261.66,245.61Z"/><path class="cls-8" d="M155.31,224.24c17.58-12.2,35.16-15.16,55-10.19,14.52,3.62,27.48,10.33,36.57,21.46"/><path class="cls-9" d="M126.69,180.75q44.34-36.12,99.67-22.31,56.64,14.15,78.53,69.1a9.88,9.88,0,0,1-6.56,13.2L293.74,242a7.6,7.6,0,0,1-8.93-4.18q-21.21-46.53-63.8-58-41.43-11.13-81.51,19.23a11.21,11.21,0,0,1-14.46-.89l-2.78-2.66a7.6,7.6,0,0,1-.26-10.75l.48-.47h0q2.08-1.83,4.2-3.55"/><path class="cls-10" d="M294.55,206.88a130.63,130.63,0,0,1,10.34,20.66,9.88,9.88,0,0,1-6.56,13.2L293.74,242a7.6,7.6,0,0,1-8.93-4.18q-14.42-31.63-38.73-47.06s27.5,19.34,36,21.62C297.14,216.36,294.55,206.88,294.55,206.88Z"/><path class="cls-11" d="M140.12,177.12q38.17-24.56,85.32-12.78,28.08,7,47.29,23.9"/><path class="cls-10" d="M170.55,181.83a115.53,115.53,0,0,0-31.05,17.22,11.21,11.21,0,0,1-14.46-.89l-2.78-2.66a7.6,7.6,0,0,1-.26-10.75l.48-.47h0c2-1.73,4-3.39,6-5,0,0,4.08,6.29,18.42,6.29C157.76,185.59,170.55,181.83,170.55,181.83Z"/><path class="cls-12" d="M122.49,184.3Q168.41,144,226.36,158.44q56.64,14.15,78.53,69.1a9.88,9.88,0,0,1-6.56,13.2L293.74,242a7.6,7.6,0,0,1-8.93-4.18q-21.21-46.53-63.8-58-41.43-11.13-81.51,19.23a11.21,11.21,0,0,1-14.46-.89l-2.78-2.66a7.6,7.6,0,0,1-.26-10.75l.48-.47Z"/><path class="cls-13" d="M176.53,274.62A21.79,21.79,0,1,0,191,258.34a21.79,21.79,0,0,0-14.48,16.28Z"/><path class="cls-14" d="M179,289.92a21.79,21.79,0,0,0,37.92-21.46s0,14-10.93,21S179,289.92,179,289.92Z"/><path class="cls-15" d="M176.57,274.5A21.79,21.79,0,1,0,191,258.22a21.79,21.79,0,0,0-14.47,16.28Z"/><path class="cls-16" d="M198.58,263.6a16.69,16.69,0,0,0-5.69.94c-5.86,2-9.14,7.14-10.42,13.38"/><circle class="cls-17" cx="338.59" cy="23.08" r="23.08"/><g class="cls-18"><path class="cls-19" d="M299,38.06l-3.08-2.5a.79.79,0,0,0-.73-.13l-3.95,1.13a.76.76,0,0,1-.94-1l1.6-3.73a.75.75,0,0,0-.07-.7l-2.2-3.28a.79.79,0,0,1,.74-1.21l4.06.2a.93.93,0,0,0,.69-.31l2.59-3.16a.78.78,0,0,1,1.38.26l.92,3.85a.77.77,0,0,0,.48.53l3.84,1.31a.76.76,0,0,1,.12,1.38L301,32.86a.79.79,0,0,0-.38.63l-.25,4a.82.82,0,0,1-1.32.59Z"/></g><circle class="cls-20" cx="324.81" cy="44.3" r="15.33"/><path class="cls-21" d="M2.2,243.54a.41.41,0,0,0-.07.11.86.86,0,0,0,.36,1.1l.77.41a.74.74,0,0,0,1-.35.86.86,0,0,0-.36-1.1l-.77-.41a.73.73,0,0,0-1,.24Z"/><path class="cls-22" d="M25.41,233.16l-3.63,7.39a.88.88,0,0,0,0,.76l2.57,5.12-5-1-1.67,1.81a.73.73,0,0,0-.67.23l-4.29,4.63-1.39-9.55-6-3.24L9.83,237a.82.82,0,0,0,.42-.61l.3-2.38.72-.37.64-4.92,5,5.47a.78.78,0,0,0,.68.25Z"/><path class="cls-19" d="M10.12,225.86a.78.78,0,0,0-.13.36l-1.23,9.52L.64,239.88a.79.79,0,0,0-.42.72.85.85,0,0,0,.43.74l2,1.06a.74.74,0,0,0,1-.36A.85.85,0,0,0,3.29,241l-.56-.31L9.82,237a.78.78,0,0,0,.41-.61l1.07-8.3,5.6,6.11a.77.77,0,0,0,.68.24l7.82-1.29-3.63,7.38a.85.85,0,0,0,0,.76l3.76,7.51-7.83-1.55a.71.71,0,0,0-.68.22l-5.49,5.94-1.22-8.35a.85.85,0,0,0-.43-.62l-2.06-1.1a.74.74,0,0,0-1,.35.86.86,0,0,0,.36,1.1l1.7.91,1.39,9.56a.81.81,0,0,0,.53.66.7.7,0,0,0,.78-.19l6.29-6.8,9,1.78a.75.75,0,0,0,.75-.32.83.83,0,0,0,.05-.85L23.32,241l4.16-8.47a.88.88,0,0,0-.06-.86.78.78,0,0,0-.76-.33l-8.95,1.48-6.41-7a.76.76,0,0,0-.8-.22.83.83,0,0,0-.38.29Z"/><path class="cls-23" d="M337.72,184.52l-4-5.25a1.63,1.63,0,0,0-1.08-.64,1.65,1.65,0,0,0-1.55,2.62l3.95,5.25-5.25,3.94a1.66,1.66,0,0,0-.33,2.31,1.64,1.64,0,0,0,2.31.32l5.25-3.95,3.95,5.25a1.63,1.63,0,0,0,1.08.64,1.66,1.66,0,0,0,1.22-.31,1.63,1.63,0,0,0,.32-2.3l-3.95-5.25,5.25-4a1.66,1.66,0,0,0,.33-2.31,1.64,1.64,0,0,0-2.3-.32Z"/></g></g></svg>