<?xml version="1.0" encoding="utf-8"?>
<!-- Generator: Adobe Illustrator 24.2.0, SVG Export Plug-In . SVG Version: 6.00 Build 0)  -->
<svg version="1.1" id="图层_1" xmlns="http://www.w3.org/2000/svg" xmlns:xlink="http://www.w3.org/1999/xlink" x="0px" y="0px"
	 viewBox="0 0 566.93 566.93" style="enable-background:new 0 0 566.93 566.93;" xml:space="preserve">
<style type="text/css">
	.st0{opacity:0.27;fill:#E6F1FF;}
	.st1{fill:none;stroke:#DBDBDB;stroke-width:2.2888;stroke-miterlimit:10;}
	.st2{fill:none;stroke:#DBDBDB;stroke-width:3.4332;stroke-linecap:round;stroke-linejoin:round;stroke-miterlimit:10;}
	.st3{fill:none;stroke:#DBDBDB;stroke-width:3.2905;stroke-linecap:round;stroke-linejoin:round;stroke-miterlimit:10;}
	.st4{fill:url(#SVGID_1_);}
	.st5{fill:none;stroke:#DBDBDB;stroke-width:2.8548;stroke-linecap:round;stroke-linejoin:round;stroke-miterlimit:10;}
	.st6{fill:#7BACFC;stroke:#8FA0FF;stroke-width:1.7789;stroke-miterlimit:10;}
	.st7{fill:#749AF2;}
	.st8{fill:none;stroke:#8FA0FF;stroke-width:1.7789;stroke-miterlimit:10;}
	.st9{fill:#A4D3FF;stroke:#8FA0FF;stroke-width:1.7789;stroke-miterlimit:10;}
	
		.st10{opacity:0.35;fill:none;stroke:#DBEEFF;stroke-width:2.9268;stroke-linecap:round;stroke-linejoin:round;stroke-miterlimit:10;}
	.st11{opacity:0.38;fill:#7F95F5;}
	.st12{fill:#E0EDFC;stroke:#87CEFF;stroke-width:1.186;stroke-miterlimit:10;}
	.st13{opacity:0.22;fill:#B5C5FF;}
	
		.st14{opacity:0.76;fill:none;stroke:#FFFFFF;stroke-width:3.5579;stroke-linecap:round;stroke-linejoin:round;stroke-miterlimit:10;}
	.st15{opacity:0.29;fill:#8DA4FF;}
	.st16{fill:none;stroke:#AABEFF;stroke-width:4;stroke-linecap:round;stroke-linejoin:round;stroke-miterlimit:10;}
	.st17{opacity:0.5;fill:#AABEFF;}
	.st18{opacity:0.46;fill:url(#SVGID_2_);}
	.st19{fill:#D1E6FF;}
	.st20{fill:#AABEFF;}
	.st21{clip-path:url(#SVGID_4_);fill:#CCDAFF;}
</style>
<g>
	<g>
		<g>
			<g>
				<path class="st0" d="M129.18,345.89c0,0,56.28,7.49,144.3-1.89s149.65-61.37,149.65-61.37l9.16,16.39l-3.14,55.78l-14.8,5.5
					l23.6,3.88l9.25,7.31l1.54,26.91l-8.36,7.54l-26.04,3.21l-277.18-1.62l-7.99-7.78v-27.76l14.89-9.22L129.18,345.89z"/>
				<g>
					<path class="st1" d="M448.46,375.44v17.04c0,8.11-6.57,14.68-14.68,14.68H144.07c-8.11,0-14.68-6.57-14.68-14.68v-17.04
						c0-8.11,6.57-14.68,14.68-14.68h289.72C441.89,360.76,448.46,367.33,448.46,375.44z"/>
					
						<rect x="370.81" y="374.18" transform="matrix(7.312823e-11 -1 1 7.312823e-11 10.0469 777.96)" class="st1" width="46.39" height="19.55"/>
					
						<rect x="166.9" y="374.18" transform="matrix(7.291241e-11 -1 1 7.291241e-11 -193.8628 574.0503)" class="st1" width="46.39" height="19.55"/>
				</g>
			</g>
			<g>
				<path class="st2" d="M206.56,277.83h-16.5c-25.4,0-45.99-20.59-45.99-45.99v0c0-25.4,20.59-45.99,45.99-45.99h169.89
					c25.4,0-20.64,11.38-20.64,44.52v0c-0.45,38.21,46.04,47.47,20.64,47.47h-126.7"/>
				<path class="st2" d="M206.56,277.83"/>
				<path class="st2" d="M235.5,277.83"/>
				<path class="st2" d="M206.56,267.68h-6.78c-23.68,0-42.88-16.17-42.88-36.12v0c0-19.95,19.2-36.12,42.88-36.12h158.38"/>
				<path class="st2" d="M206.56,267.68"/>
				<line class="st2" x1="358.16" y1="267.68" x2="233.15" y2="267.68"/>
				<line class="st2" x1="345.35" y1="213.59" x2="200.49" y2="213.59"/>
				<line class="st2" x1="336.39" y1="231.84" x2="177.8" y2="231.84"/>
				<line class="st3" x1="206.56" y1="249.77" x2="195.22" y2="249.77"/>
				<path class="st3" d="M208.85,249.77"/>
				<line class="st3" x1="342.36" y1="249.77" x2="232.85" y2="249.77"/>
				<linearGradient id="SVGID_1_" gradientUnits="userSpaceOnUse" x1="236.2657" y1="290.9026" x2="204.1291" y2="235.2404">
					<stop  offset="0" style="stop-color:#94FFFB;stop-opacity:0.2"/>
					<stop  offset="0.1241" style="stop-color:#91EEFA;stop-opacity:0.2129"/>
					<stop  offset="0.5056" style="stop-color:#87BEF7;stop-opacity:0.2525"/>
					<stop  offset="0.7977" style="stop-color:#81A1F6;stop-opacity:0.2828"/>
					<stop  offset="0.9637" style="stop-color:#7F96F5;stop-opacity:0.3"/>
					<stop  offset="1" style="stop-color:#7F95F5"/>
				</linearGradient>
				<polygon class="st4" points="207.96,233.03 207.96,293.11 219.9,277.83 232.44,293.11 232.44,233.03 				"/>
				<polyline class="st5" points="232.14,249.77 232.14,232.98 207.66,232.98 207.66,293.06 219.9,277.83 232.14,293.06 
					232.14,249.77 				"/>
			</g>
			<path class="st5" d="M234.26,279.19h161.59h17.12c10.02,0,18.14,8.12,18.14,18.14v44.92c0,10.02-8.12,18.14-18.14,18.14H396
				H148.31c-10.02,0-18.14-8.12-18.14-18.14v-44.92c0-10.02,8.12-18.14,18.14-18.14h58.25"/>
			
				<rect x="176.11" y="310.01" transform="matrix(0.7071 -0.7071 0.7071 0.7071 -171.6759 225.0983)" class="st2" width="19.54" height="19.54"/>
		</g>
		<g>
			<line class="st5" x1="390.85" y1="279.19" x2="391" y2="360.37"/>
			<line class="st5" x1="374.14" y1="279.19" x2="374.29" y2="360.37"/>
			<line class="st5" x1="405.84" y1="279.19" x2="405.99" y2="360.37"/>
			<line class="st5" x1="355.31" y1="279.19" x2="355.46" y2="360.37"/>
		</g>
	</g>
	<g>
		<g>
			<path class="st6" d="M397.25,428.79l-4.38,3.37c-3.56,2.74-8.67,2.08-11.41-1.48l-48.4-62.85c-2.74-3.56-2.08-8.67,1.48-11.41
				l4.38-3.37c3.56-2.74,8.67-2.08,11.41,1.48l48.4,62.85C401.48,420.94,400.81,426.05,397.25,428.79z"/>
			<g>
				
					<rect x="367.1" y="406.04" transform="matrix(0.7923 -0.6101 0.6101 0.7923 -170.1064 314.6465)" class="st7" width="20.07" height="2.32"/>
				
					<rect x="378.5" y="420.84" transform="matrix(0.7923 -0.6101 0.6101 0.7923 -176.7692 324.6723)" class="st7" width="20.07" height="2.32"/>
				
					<rect x="372.96" y="409.71" transform="matrix(0.7923 -0.6101 0.6101 0.7923 -173.5343 319.8047)" class="st7" width="20.07" height="10.21"/>
			</g>
			<path class="st8" d="M397.25,428.79l-4.38,3.37c-3.56,2.74-8.67,2.08-11.41-1.48l-48.4-62.85c-2.74-3.56-2.08-8.67,1.48-11.41
				l4.38-3.37c3.56-2.74,8.67-2.08,11.41,1.48l48.4,62.85C401.48,420.94,400.81,426.05,397.25,428.79z"/>
		</g>
		<g>
			<circle class="st9" cx="313.39" cy="328.28" r="66.48"/>
			<path class="st10" d="M369.7,295.77"/>
			<path class="st11" d="M359.04,279.93c8.33,8.04,14.67,18.36,17.94,30.34c9.65,35.42-11.25,71.96-46.67,81.61
				c-28.16,7.67-57.03-3.96-72.53-26.86c0,0,37.91-4.47,66.34-28.08C352.55,313.32,359.04,279.93,359.04,279.93z"/>
			<path class="st10" d="M249.21,330.38c0.03-7.02,1.36-17.52,4.19-24.37c13.35-32.33,48.72-49.66,83.04-37.71"/>
			<circle class="st12" cx="313.14" cy="328.91" r="51.65"/>
			<path class="st13" d="M359.04,279.93c8.33,8.04,14.67,18.36,17.94,30.34c9.65,35.42-11.25,71.96-46.67,81.61
				c-28.16,7.67-57.03-3.96-72.53-26.86c0,0,37.91-4.47,66.34-28.08C352.55,313.32,359.04,279.93,359.04,279.93z"/>
			<path class="st14" d="M274.81,313.08c5.01-14.9,19.09-25.64,35.68-25.64c6.26,0,12.16,1.53,17.35,4.23"/>
			<path class="st15" d="M361.47,313.67c1.93,5.25,2.98,10.9,2.98,16.79c0,27.46-22.82,49.72-50.98,49.72
				c-15.14,0-28.74-6.44-38.08-16.66c0,0,25.8,22.4,58.78,4.24S361.47,313.67,361.47,313.67z"/>
		</g>
	</g>
	<circle class="st16" cx="450.46" cy="241.13" r="12.9"/>
	<circle class="st17" cx="439.27" cy="254.1" r="19.5"/>
	<linearGradient id="SVGID_2_" gradientUnits="userSpaceOnUse" x1="96.0296" y1="306.4644" x2="106.9395" y2="306.4644">
		<stop  offset="0" style="stop-color:#94FFFB;stop-opacity:0.8"/>
		<stop  offset="0.1992" style="stop-color:#8FE4F9;stop-opacity:0.8398"/>
		<stop  offset="0.5559" style="stop-color:#86B9F7;stop-opacity:0.9112"/>
		<stop  offset="0.8349" style="stop-color:#819FF6;stop-opacity:0.967"/>
		<stop  offset="1" style="stop-color:#7F95F5"/>
	</linearGradient>
	<circle class="st18" cx="101.48" cy="306.46" r="5.45"/>
	<g>
		<g>
			<path class="st19" d="M169.55,156.23h-10.76c-0.71,0-1.4,0.28-1.91,0.79c-0.51,0.5-0.79,1.19-0.79,1.9c0,1.5,1.21,2.69,2.7,2.69
				h10.76v10.76c0,1.49,1.2,2.7,2.69,2.7c1.5,0,2.69-1.21,2.69-2.7v-10.76h10.76c0.71,0,1.4-0.28,1.91-0.79
				c0.51-0.5,0.79-1.19,0.79-1.9c0-1.5-1.21-2.69-2.7-2.69h-10.76v-10.76c0-0.71-0.28-1.4-0.79-1.91c-0.5-0.51-1.19-0.79-1.9-0.79
				c-1.5,0-2.69,1.21-2.69,2.7V156.23z M169.55,156.23"/>
		</g>
	</g>
	<path class="st20" d="M481.93,205.05"/>
	<g>
		<g>
			<defs>
				
					<rect id="SVGID_3_" x="463.24" y="292.65" transform="matrix(0.2972 -0.9548 0.9548 0.2972 43.85 659.4844)" width="13.32" height="14.61"/>
			</defs>
			<clipPath id="SVGID_4_">
				<use xlink:href="#SVGID_3_"  style="overflow:visible;"/>
			</clipPath>
			<path class="st21" d="M468.67,306.13c-0.42,0.42-1.17,0.19-1.28-0.4l-0.64-3.6c-0.04-0.23-0.2-0.43-0.42-0.53l-3.43-1.62
				c-0.56-0.26-0.58-1.01-0.04-1.27l3.39-1.6c0.21-0.11,0.35-0.3,0.38-0.53l0.45-3.6c0.07-0.58,0.8-0.8,1.24-0.38l2.71,2.6
				c0.18,0.17,0.42,0.24,0.66,0.21l3.71-0.61c0.59-0.11,1.08,0.51,0.8,1.02l-1.68,3.22c-0.11,0.2-0.1,0.45,0.01,0.65l1.85,3.23
				c0.3,0.52-0.15,1.13-0.75,1.02l-3.75-0.62c-0.24-0.04-0.48,0.03-0.65,0.2L468.67,306.13L468.67,306.13z M468.67,306.13"/>
		</g>
	</g>
</g>
</svg>
