<svg xmlns="http://www.w3.org/2000/svg" xmlns:xlink="http://www.w3.org/1999/xlink" viewBox="0 0 387.68 315.91"><defs><style>.cls-1,.cls-19,.cls-20,.cls-21,.cls-4{fill:none;}.cls-2{isolation:isolate;}.cls-3,.cls-5{fill:#e6f1ff;}.cls-3{opacity:0.27;}.cls-4,.cls-7{stroke:#dbdbdb;stroke-width:3px;}.cls-16,.cls-21,.cls-4,.cls-7{stroke-linecap:round;stroke-linejoin:round;}.cls-6,.cls-7{fill:#dbdbdb;}.cls-8{fill:url(#未命名的渐变_75);}.cls-9{fill:url(#未命名的渐变_35);}.cls-10{fill:url(#未命名的渐变_74);}.cls-11{fill:#8fa0ff;}.cls-12{fill:url(#未命名的渐变_35-2);}.cls-13,.cls-18{fill:#7f95f5;}.cls-14{fill:#8da4ff;opacity:0.29;}.cls-15{fill:#6979b8;}.cls-15,.cls-17{opacity:0.22;}.cls-16{fill:#e0edfc;stroke-width:1.4px;}.cls-16,.cls-21{stroke:#aabeff;}.cls-17{fill:#b5c5ff;}.cls-18{opacity:0.31;mix-blend-mode:multiply;}.cls-19{stroke:#7f95f5;stroke-width:1.04px;}.cls-19,.cls-20{stroke-miterlimit:10;}.cls-20{stroke:#d1e6ff;stroke-width:3.46px;}.cls-21{stroke-width:2.8px;}.cls-22{fill:#aabeff;opacity:0.5;}.cls-23{clip-path:url(#clip-path);}.cls-24{fill:#ccdaff;}.cls-25{fill:#d1e6ff;}</style><linearGradient id="未命名的渐变_75" x1="198.24" y1="130.93" x2="249.18" y2="214.5" gradientUnits="userSpaceOnUse"><stop offset="0" stop-color="#d1feff"/><stop offset="0.16" stop-color="#bdeaff"/><stop offset="0.4" stop-color="#a4d0ff"/><stop offset="0.54" stop-color="#9bc7ff"/></linearGradient><linearGradient id="未命名的渐变_35" x1="220.8" y1="173.41" x2="166.52" y2="249.02" gradientUnits="userSpaceOnUse"><stop offset="0" stop-color="#94c4ff"/><stop offset="0.2" stop-color="#8fb8fc"/><stop offset="0.7" stop-color="#839ef7"/><stop offset="1" stop-color="#7f95f5"/></linearGradient><linearGradient id="未命名的渐变_74" x1="135.64" y1="192.63" x2="218.95" y2="314.89" gradientUnits="userSpaceOnUse"><stop offset="0" stop-color="#d1feff"/><stop offset="0.29" stop-color="#bdeaff"/><stop offset="0.73" stop-color="#a4d0ff"/><stop offset="1" stop-color="#9bc7ff"/></linearGradient><linearGradient id="未命名的渐变_35-2" x1="245.35" y1="232.71" x2="277.45" y2="279.83" xlink:href="#未命名的渐变_35"/><clipPath id="clip-path"><polygon class="cls-1" points="373.21 52.95 358.74 59.39 352.91 46.09 367.38 39.65 373.21 52.95"/></clipPath></defs><g class="cls-2"><g id="图层_2" data-name="图层 2"><g id="很抱歉_没有相关课件资源" data-name="很抱歉，没有相关课件资源"><path class="cls-3" d="M33.13,215.84s125.39,28.61,191.09-13.12S325.72,55.35,325.72,55.35l1.07,216.75-34,1.4L287,272.1l-1.12-5.62L279,271.31l-32.91.53-7.22-6.79-8.27,6.26H160.94l-8.75-6-5.58,4-33.16,0-3.34-4.79-5.06,4.79-68,0-3.91-6.94Z"/><rect class="cls-4" x="238.42" y="94.18" width="46.58" height="177.92" rx="9.9"/><rect class="cls-4" x="151.52" y="6.84" width="86.35" height="264.48" rx="9.46"/><rect class="cls-4" x="33.13" y="73.79" width="75.91" height="195.6" rx="6.95"/><polyline class="cls-4" points="33.13 99.46 109.03 99.46 109.03 113.52 33.13 113.57"/><line class="cls-4" x1="33.13" y1="241.16" x2="109.03" y2="241.16"/><line class="cls-4" x1="34.2" y1="227.59" x2="110.11" y2="227.59"/><line class="cls-4" x1="238.22" y1="113.52" x2="285.19" y2="113.57"/><line class="cls-4" x1="238.22" y1="125.54" x2="285.19" y2="125.59"/><line class="cls-4" x1="238.22" y1="139.04" x2="285.19" y2="139.09"/><line class="cls-4" x1="237.91" y1="241.07" x2="285" y2="240.72"/><rect class="cls-4" x="109.73" y="51.19" width="40.96" height="218.17" rx="6.99"/><path class="cls-5" d="M129.63,118.86a2.51,2.51,0,0,1-1.73-.68l-7.26-6.76a2.45,2.45,0,0,1,0-3.54l7-6.93a2.48,2.48,0,0,1,1.77-.72,2.55,2.55,0,0,1,1.73.67l7.26,6.77a2.48,2.48,0,0,1,.79,1.76,2.41,2.41,0,0,1-.73,1.77l-7,6.94A2.52,2.52,0,0,1,129.63,118.86Z"/><path class="cls-6" d="M129.39,101.73a1.05,1.05,0,0,1,.71.27l7.26,6.77a.93.93,0,0,1,0,1.36l-7,6.94a1,1,0,0,1-.72.29,1,1,0,0,1-.7-.28l-7.27-6.76a.94.94,0,0,1,0-1.37l7-6.93a1,1,0,0,1,.72-.29m0-3h0a4,4,0,0,0-2.82,1.15l-7,6.94a3.94,3.94,0,0,0,.09,5.69l7.26,6.77a4,4,0,0,0,2.75,1.08,4,4,0,0,0,2.83-1.16l7-6.93a3.94,3.94,0,0,0-.08-5.7l-7.27-6.76a4,4,0,0,0-2.75-1.08Z"/><path class="cls-5" d="M129.63,142.24a2.51,2.51,0,0,1-1.73-.68l-7.26-6.77a2.4,2.4,0,0,1-.78-1.75,2.45,2.45,0,0,1,.73-1.78l7-6.93a2.48,2.48,0,0,1,1.77-.72,2.55,2.55,0,0,1,1.73.67l7.26,6.77a2.43,2.43,0,0,1,.06,3.53l-7,6.93A2.49,2.49,0,0,1,129.63,142.24Z"/><path class="cls-6" d="M129.39,125.11a1.05,1.05,0,0,1,.71.27l7.26,6.77a.93.93,0,0,1,0,1.36l-7,6.94a1,1,0,0,1-.72.29,1,1,0,0,1-.7-.28l-7.27-6.76a.94.94,0,0,1,0-1.37l7-6.93a1,1,0,0,1,.72-.29m0-3a4,4,0,0,0-2.82,1.15l-7,6.93a4,4,0,0,0-1.17,2.87,3.92,3.92,0,0,0,1.26,2.83l7.26,6.77a4,4,0,0,0,2.75,1.08,4,4,0,0,0,2.83-1.16l7-6.93a3.94,3.94,0,0,0-.08-5.7l-7.27-6.76a4,4,0,0,0-2.75-1.08Z"/><path class="cls-5" d="M130.29,165.72a2.51,2.51,0,0,1-1.73-.68l-7.26-6.76a2.43,2.43,0,0,1-.78-1.76,2.41,2.41,0,0,1,.73-1.77l7-6.94a2.54,2.54,0,0,1,3.5,0l7.26,6.76a2.48,2.48,0,0,1,.79,1.76,2.41,2.41,0,0,1-.73,1.77l-7,6.94A2.52,2.52,0,0,1,130.29,165.72Z"/><path class="cls-6" d="M130.05,148.59a1.05,1.05,0,0,1,.71.27l7.26,6.77a.94.94,0,0,1,0,1.37l-7,6.93a1,1,0,0,1-.72.29,1.07,1.07,0,0,1-.71-.27l-7.26-6.77a.93.93,0,0,1,0-1.36l7-6.94a1,1,0,0,1,.72-.29m0-3h0a4,4,0,0,0-2.82,1.15l-7,6.94a4,4,0,0,0,.09,5.7l7.26,6.76a4,4,0,0,0,5.58-.07l7-6.94a3.93,3.93,0,0,0-.08-5.69l-7.27-6.77a4,4,0,0,0-2.75-1.08Z"/><rect class="cls-4" x="285.83" y="55.33" width="40.96" height="218.17" rx="6.99"/><rect class="cls-4" x="176.22" y="27.63" width="36.95" height="97.94" rx="6.03"/><line class="cls-7" x1="194.69" y1="154.84" x2="194.69" y2="196.79"/><polyline class="cls-4" points="286.95 79.1 326.79 79.1 326.79 94.12 286.95 94.18"/><polyline class="cls-4" points="286.44 181.57 326.28 181.57 326.28 254.34 286.44 254.61"/><polygon class="cls-8" points="302.79 191.51 218.84 275.67 218.84 177.66 302.79 191.51"/><polygon class="cls-9" points="135.53 191.63 219.48 275.79 218.84 177.66 135.53 191.63"/><polygon class="cls-10" points="136.08 296.1 136.08 192.33 218.5 211.41 218.5 315.19 136.08 296.1"/><path class="cls-11" d="M136.64,193,218,211.86V314.49l-81.31-18.83V193m-1.11-1.4V296.55l83.53,19.34V211l-83.53-19.34Z"/><polygon class="cls-12" points="219.23 211.41 300.19 192.32 300.19 296.16 219.23 315.25 219.23 211.41"/><path class="cls-13" d="M299.67,193V295.75L219.75,314.6V211.83L299.67,193m1-1.32-82,19.34V315.91l82-19.34V191.66Z"/><polygon class="cls-14" points="182.41 250.12 218.58 210.96 135.53 191.63 135.53 254.66 182.41 250.12"/><polygon class="cls-15" points="218.58 210.96 245.21 262.77 301.06 253.76 302.11 191.62 218.58 210.96"/><polygon class="cls-16" points="178.08 237.2 94.55 217.86 135.53 191.63 219.06 210.97 178.08 237.2"/><polygon class="cls-16" points="259.57 237.19 343.1 217.85 302.11 191.62 218.58 210.96 234.46 221.12 239.29 224.21 259.57 237.19"/><path class="cls-17" d="M94.55,217.86S136,228.17,166.8,223s51.78-12,51.78-12l-40.5,26.24Z"/><polygon class="cls-18" points="136.07 271.47 136.07 288.71 219.13 307.31 300.53 288.36 300.53 273.55 219.13 290.92 136.07 271.47"/><polyline class="cls-19" points="302.11 191.62 218.84 177.66 135.53 191.63"/><path class="cls-17" d="M244.57,227.59s19.68-4.44,32.13-12.34c20.52-13,26.09-23.74,26.09-23.74l40.31,26.34-83.53,19.34Z"/><path class="cls-20" d="M385.9,113.5s.7,4.4-2.91,6.57-12-4.84-17.87-1,.85,13.35-6.08,18.25c-5.86,4.15-13.21-4.29-18.34-.89s.93,13-5,17.48c-5.26,4-11.61,0-11.61,0"/><ellipse class="cls-21" cx="10.4" cy="183.03" rx="9" ry="9.07"/><ellipse class="cls-22" cx="348.07" cy="18.66" rx="18.51" ry="18.65"/><g class="cls-23"><path class="cls-24" d="M365.14,56.06l-3.08-2.49a.81.81,0,0,0-.72-.14l-4,1.13a.75.75,0,0,1-.93-1L358,49.82a.72.72,0,0,0-.07-.71l-2.2-3.28a.8.8,0,0,1,.74-1.21l4.06.2a.86.86,0,0,0,.69-.31l2.59-3.15a.78.78,0,0,1,1.38.26l.93,3.85a.74.74,0,0,0,.47.52l3.84,1.31a.76.76,0,0,1,.12,1.38l-3.49,2.18a.84.84,0,0,0-.39.64l-.24,4a.83.83,0,0,1-1.33.59Z"/></g><path class="cls-25" d="M53.76,22.21H42.22a2.87,2.87,0,0,0-2,.85,3,3,0,0,0-.85,2.06A2.9,2.9,0,0,0,42.22,28H53.76V39.67a2.89,2.89,0,1,0,5.78,0V28H71.08a2.88,2.88,0,0,0,2-.85A3,3,0,0,0,74,25.12a2.9,2.9,0,0,0-2.9-2.91H59.54V10.57a3,3,0,0,0-.85-2.06,2.84,2.84,0,0,0-2-.85,2.89,2.89,0,0,0-2.89,2.91Z"/></g></g></g></svg>