<svg xmlns="http://www.w3.org/2000/svg" xmlns:xlink="http://www.w3.org/1999/xlink" viewBox="0 0 403.59 288.78"><defs><style>.cls-1,.cls-16,.cls-2,.cls-7{fill:none;}.cls-2{stroke:#dbdbdb;stroke-width:3px;}.cls-2,.cls-7{stroke-linecap:round;stroke-linejoin:round;}.cls-3{fill:#e6f1ff;opacity:0.32;}.cls-4{fill:url(#未命名的渐变_39);}.cls-5{fill:#a4d3ff;stroke:#8fa0ff;stroke-width:2.03px;}.cls-16,.cls-5,.cls-8{stroke-miterlimit:10;}.cls-11,.cls-6{fill:#7f95f5;}.cls-6{opacity:0.38;}.cls-7{stroke:#dbeeff;stroke-width:3.34px;opacity:0.35;}.cls-8{fill:#e0edfc;stroke:#87ceff;stroke-width:1.35px;}.cls-9{fill:#b5c5ff;opacity:0.22;}.cls-10{fill:#8da4ff;opacity:0.29;}.cls-12{fill:#d1e6ff;}.cls-13{fill:#bacaff;opacity:0.65;}.cls-14{clip-path:url(#clip-path);}.cls-15{fill:#ccdaff;}.cls-16{stroke:#aabeff;stroke-width:1.7px;opacity:0.5;}</style><linearGradient id="未命名的渐变_39" x1="112.42" y1="71.14" x2="94.71" y2="40.47" gradientTransform="matrix(1, 0, -0.07, 1.01, 2.55, -2.18)" gradientUnits="userSpaceOnUse"><stop offset="0" stop-color="#94fffb" stop-opacity="0.2"/><stop offset="0.43" stop-color="#89c8f8" stop-opacity="0.25"/><stop offset="0.96" stop-color="#7f96f5" stop-opacity="0.3"/><stop offset="0.97" stop-color="#7f96f5" stop-opacity="0.43"/><stop offset="0.98" stop-color="#7f95f5" stop-opacity="0.68"/><stop offset="0.99" stop-color="#7f95f5" stop-opacity="0.85"/><stop offset="1" stop-color="#7f95f5" stop-opacity="0.96"/><stop offset="1" stop-color="#7f95f5"/></linearGradient><clipPath id="clip-path" transform="translate(0 -1.92)"><polygon class="cls-1" points="53.32 18.21 34.38 27.04 26.75 8.83 45.69 0 53.32 18.21"/></clipPath></defs><g id="图层_2" data-name="图层 2"><g id="暂无历史记录"><path class="cls-2" d="M296.93,37.28H57.72A17.75,17.75,0,0,0,40,55v193.3a17.75,17.75,0,0,0,17.75,17.75l229.66.09s23,1,25.66-4.41" transform="translate(0 -1.92)"/><line class="cls-2" x1="316.97" y1="95.67" x2="45.19" y2="95.67"/><line class="cls-2" x1="231.08" y1="121.19" x2="84.79" y2="121.19"/><line class="cls-2" x1="232.89" y1="148.43" x2="86.59" y2="148.43"/><line class="cls-2" x1="234.7" y1="175.66" x2="88.4" y2="175.66"/><line class="cls-2" x1="236.5" y1="202.89" x2="90.21" y2="202.89"/><line class="cls-2" x1="238.31" y1="230.13" x2="92.01" y2="230.13"/><line class="cls-2" x1="282.8" y1="121.19" x2="245.22" y2="121.19"/><line class="cls-2" x1="284.6" y1="148.43" x2="247.03" y2="148.43"/><line class="cls-2" x1="286.41" y1="175.66" x2="248.83" y2="175.66"/><line class="cls-2" x1="288.21" y1="202.89" x2="250.64" y2="202.89"/><line class="cls-2" x1="290.02" y1="230.13" x2="252.45" y2="230.13"/><path class="cls-3" d="M54.11,232.05S171.87,238,226.13,196a803.34,803.34,0,0,0,94.53-86.84l8.94,134.76A16.46,16.46,0,0,1,313,261.76H73.82a19.32,19.32,0,0,1-18.93-17.87Z" transform="translate(0 -1.92)"/><path class="cls-2" d="M313,261.76H73.82a19.32,19.32,0,0,1-18.93-17.87L42.38,55.15A16.46,16.46,0,0,1,58.94,37.28H298.15a19.32,19.32,0,0,1,18.93,17.87L329.6,243.89A16.46,16.46,0,0,1,313,261.76Z" transform="translate(0 -1.92)"/><polygon class="cls-4" points="127.55 59.7 78.25 59.7 77.05 48.33 126.35 48.33 127.55 59.7"/><polygon class="cls-2" points="127.53 60.06 78.22 60.06 77.02 48.69 126.33 48.69 127.53 60.06"/><path class="cls-2" d="M114.71,16.43h0a6.65,6.65,0,0,1,6.65,6.65V34.85a0,0,0,0,1,0,0h-13.3a0,0,0,0,1,0,0V23.08A6.65,6.65,0,0,1,114.71,16.43Z"/><path class="cls-2" d="M241.23,16.68h0a6.65,6.65,0,0,1,6.65,6.65V35.11a0,0,0,0,1,0,0h-13.3a0,0,0,0,1,0,0V23.33A6.65,6.65,0,0,1,241.23,16.68Z"/><circle class="cls-5" cx="231.72" cy="211.78" r="75.79"/><path class="cls-6" d="M295.12,171.12a75.8,75.8,0,1,1-132.84,71.36s43.34,3.85,80.58-15.88S295.12,171.12,295.12,171.12Z" transform="translate(0 -1.92)"/><path class="cls-7" d="M159.25,216.1c0-8,1.55-20,4.78-27.79,15.21-36.86,55.54-56.61,94.66-43" transform="translate(0 -1.92)"/><circle class="cls-8" cx="232.13" cy="212.5" r="58.88"/><path class="cls-9" d="M298.34,179.07a75.8,75.8,0,1,1-139.53,57.19s42.71,8.32,81.8-7.43S298.34,179.07,298.34,179.07Z" transform="translate(0 -1.92)"/><path class="cls-10" d="M283.66,241.09A55.31,55.31,0,0,1,272.52,257c-22.15,22.12-58.5,21.65-81.18-1.07a58.57,58.57,0,0,1-17.23-44.13s1.66,42.42,42.88,54.39S283.66,241.09,283.66,241.09Z" transform="translate(0 -1.92)"/><rect class="cls-11" x="225.66" y="168.38" width="12.12" height="49.86" rx="6.06"/><rect class="cls-11" x="247.57" y="205.58" width="8.67" height="53" rx="4.34" transform="translate(588.81 168.45) rotate(126.97)"/><circle class="cls-5" cx="231.72" cy="214.74" r="9.58"/><polygon class="cls-12" points="360.7 154.1 370.43 145.74 383.34 118.69 374.77 144.95 378.27 152.33 369.06 159.9 355.65 187.74 364.37 160.38 360.7 154.1"/><path class="cls-12" d="M14.29,221.86l-6.24-8.77a2.69,2.69,0,1,0-4.39,3.12L9.9,225l-8.76,6.24a2.69,2.69,0,1,0,3.12,4.38L13,229.36l6.24,8.77A2.69,2.69,0,1,0,23.65,235l-6.24-8.77L26.18,220a2.69,2.69,0,0,0,1.09-1.74,2.69,2.69,0,0,0-4.22-2.64Z" transform="translate(0 -1.92)"/><ellipse class="cls-13" cx="356.3" cy="78.81" rx="15.29" ry="15.47" transform="translate(-3.48 137.88) rotate(-22.09)"/><g class="cls-14"><path class="cls-15" d="M42.76,22.49l-4-3.43a1,1,0,0,0-.94-.18L32.6,20.43A1,1,0,0,1,31.38,19l2.08-5.11a1,1,0,0,0-.08-1L30.49,8.47a1.09,1.09,0,0,1,1-1.65l5.32.26a1.11,1.11,0,0,0,.9-.41l3.39-4.33a1,1,0,0,1,1.81.36L44.08,8a1,1,0,0,0,.63.72l5,1.79a1.07,1.07,0,0,1,.15,1.9l-4.57,3a1.11,1.11,0,0,0-.51.87l-.32,5.45a1.08,1.08,0,0,1-1.73.81Z" transform="translate(0 -1.92)"/></g><circle class="cls-16" cx="374.55" cy="59.89" r="28.19"/></g></g></svg>