<?xml version="1.0" encoding="utf-8"?>
<!-- Generator: Adobe Illustrator 24.2.0, SVG Export Plug-In . SVG Version: 6.00 Build 0)  -->
<svg version="1.1" id="图层_1" xmlns="http://www.w3.org/2000/svg" xmlns:xlink="http://www.w3.org/1999/xlink" x="0px" y="0px"
	 viewBox="0 0 566.93 566.93" style="enable-background:new 0 0 566.93 566.93;" xml:space="preserve">
<style type="text/css">
	.st0{opacity:0.65;fill:none;stroke:#BACAFF;stroke-width:3;stroke-linecap:round;stroke-linejoin:round;stroke-miterlimit:10;}
	.st1{fill:#D1E6FF;}
	.st2{fill:url(#SVGID_1_);}
	.st3{opacity:0.32;fill:#E6F1FF;}
	.st4{fill:none;stroke:#DBDBDB;stroke-width:2.4246;stroke-linecap:round;stroke-linejoin:round;stroke-miterlimit:10;}
	.st5{fill:#E0EDFC;stroke:#AABEFF;stroke-width:1.7931;stroke-linecap:round;stroke-linejoin:round;stroke-miterlimit:10;}
	.st6{opacity:0.29;fill:#AABEFF;}
	.st7{fill:none;stroke:#AABEFF;stroke-width:1.7931;stroke-linecap:round;stroke-linejoin:round;stroke-miterlimit:10;}
	.st8{fill:#A4D3FF;stroke:#8FA0FF;stroke-width:1.301;stroke-miterlimit:10;}
	.st9{opacity:0.13;fill:#7F95F5;}
	.st10{fill:#E0EDFC;stroke:#AABEFF;stroke-width:1.6437;stroke-linecap:round;stroke-linejoin:round;stroke-miterlimit:10;}
	.st11{fill:#A4D3FF;stroke:#8FA0FF;stroke-width:1.4892;stroke-linecap:round;stroke-linejoin:round;stroke-miterlimit:10;}
	.st12{fill:#749AF2;}
	.st13{fill:none;stroke:#8FA0FF;stroke-width:1.301;stroke-miterlimit:10;}
	.st14{opacity:0.26;fill:#7F95F5;}
	.st15{fill:#FFFFFF;stroke:#D0E2FF;stroke-width:4.8347;stroke-linecap:round;stroke-linejoin:round;stroke-miterlimit:10;}
	.st16{fill:#CCDAFF;}
</style>
<ellipse transform="matrix(0.9266 -0.3761 0.3761 0.9266 -20.2444 185.9789)" class="st0" cx="466.18" cy="144.84" rx="15.29" ry="15.47"/>
<g>
	<path class="st1" d="M484.37,372.09l-3.1-1.33l1.3-3.03c1.16-2.7-0.14-5.85-2.91-7.04c-2.76-1.18-5.94,0.05-7.1,2.75l-1.3,3.03
		l-3.1-1.33c-2.76-1.18-5.94,0.05-7.1,2.75c-1.16,2.7,0.14,5.85,2.91,7.04l3.1,1.33l-1.3,3.03c-1.16,2.7,0.14,5.85,2.91,7.04
		c2.76,1.18,5.94-0.05,7.1-2.75l1.3-3.03l3.1,1.33c2.76,1.18,5.94-0.05,7.1-2.75C488.43,376.42,487.13,373.27,484.37,372.09
		L484.37,372.09z M484.37,372.09"/>
</g>
<g>
	<linearGradient id="SVGID_1_" gradientUnits="userSpaceOnUse" x1="181.0871" y1="207.5384" x2="166.8263" y2="182.8379">
		<stop  offset="0" style="stop-color:#94FFFB;stop-opacity:0.2"/>
		<stop  offset="0.1241" style="stop-color:#91EEFA;stop-opacity:0.2129"/>
		<stop  offset="0.5056" style="stop-color:#87BEF7;stop-opacity:0.2525"/>
		<stop  offset="0.7977" style="stop-color:#81A1F6;stop-opacity:0.2828"/>
		<stop  offset="0.9637" style="stop-color:#7F96F5;stop-opacity:0.3"/>
		<stop  offset="1" style="stop-color:#7F95F5"/>
	</linearGradient>
	<polygon class="st2" points="163.11,184.98 163.11,206.61 172.84,197.48 182.7,206.61 182.7,180.13 	"/>
	<path class="st3" d="M139.45,409.56h306.24V198.15l-8.63-1.86v30.26c0,0,4.56,65.42-25.04,88.24
		c-29.59,22.82-79.35,36.51-93.5,58.82c-14.15,22.31-26.22,31.82-26.22,31.82V288.04c0,0-14.1,54.63-56.13,71.36
		c-42.03,16.73-64.89,15.21-73.62,27.38s-15,18.64-15,18.64L139.45,409.56z"/>
	<g>
		<path class="st4" d="M148.99,195.89c0-2.16,4.24-5.54,11.51-8.98c12.95-6.13,35.53-12.47,60.87-12.47
			c40.85,0,72.38,15.44,72.38,21.45v209.55c0,6.01-24.77-9.33-72.38-9.02c-49.32,0.32-72.38,15.03-72.38,9.02V195.89"/>
		<path class="st4" d="M171.22,237.03c12.95-4.3,30.23-7.79,49.03-7.79c22.95,0,42.95,4.87,56.08,10.21"/>
		<path class="st4" d="M171.26,261.49c13.09-4.51,30.9-8.23,50.34-8.23c22.17,0,41.6,4.55,54.73,9.67"/>
		<path class="st4" d="M171.26,288.11c12.95-4.3,30.23-7.79,49.03-7.79c22.93,0,42.91,4.86,56.04,10.19"/>
		<path class="st4" d="M171.91,315.91c12.81-4.11,29.58-7.38,47.78-7.38c21.75,0,40.85,4.38,53.96,9.38"/>
		<path class="st4" d="M438.51,405.44c0,6.01-24.77-9.33-72.38-9.02c-49.32,0.32-72.38,15.03-72.38,9.02V195.89
			c0-6.01,32.81-21.45,72.38-21.45c40.85,0,72.38,15.44,72.38,21.45V405.44z"/>
		<path class="st4" d="M308.12,340.19c13.33-5.11,32.77-9.64,54.2-9.64c21.1,0,39.72,4.12,52.78,8.93"/>
		<path class="st4" d="M310.61,281.86c13.28-4.92,32.21-9.18,53-9.18c21.1,0,39.72,4.12,52.79,8.93"/>
		<path class="st4" d="M308.25,237.71c13.02-6.07,35.37-12.27,60.44-12.27c5.28,0,10.4,0.26,15.31,0.72"/>
		<path class="st4" d="M308.25,260.14c13.02-6.07,35.37-12.27,60.44-12.27c5.28,0,10.4,0.26,15.31,0.72"/>
		<path class="st4" d="M310.61,310.58c13.31-5.02,32.52-9.43,53.66-9.43c20.43,0,38.52,3.86,51.51,8.47"/>
		<g>
			<polyline class="st4" points="399.92,255.01 407.01,264.71 420.89,243.31 			"/>
		</g>
		<g>
			<polyline class="st4" points="399.21,227.47 406.3,237.17 420.18,215.76 			"/>
		</g>
		<polyline class="st4" points="438.51,197.41 447.14,197.41 447.14,408.83 140.9,408.83 140.9,197.41 148.99,197.41 		"/>
		<polyline class="st4" points="183.12,179.24 183.12,209.4 173.13,196.5 162.19,209.4 162.19,186.79 		"/>
	</g>
</g>
<g>
	<path class="st5" d="M350.99,427.15l26.53-18.37c5.38-3.73,12.77-2.39,16.49,3l0,0c3.73,5.38,2.39,12.77-3,16.49l-26.53,18.37
		c-5.38,3.73-12.77,2.39-16.49-3l0,0C344.27,438.26,345.61,430.88,350.99,427.15z"/>
	<path class="st6" d="M391.59,409.19c0,0,4.69,4.16,5.11,7.38s-0.72,7.4-4.14,10.63c-3.42,3.23-30.42,20.7-30.42,20.7l-5.6,0.78
		c0,0,19.91-11.09,27.56-21.64c7.65-10.55,5.82-16.69,5.82-16.69L391.59,409.19z"/>
	<path class="st7" d="M350.91,427.14l26.53-18.37c5.38-3.73,12.77-2.39,16.49,3l0,0c3.73,5.38,2.39,12.77-3,16.49l-26.53,18.37
		c-5.38,3.73-12.77,2.39-16.49-3v0C344.19,438.25,345.53,430.87,350.91,427.14z"/>
	
		<rect x="304.48" y="307.88" transform="matrix(-0.8221 0.5693 -0.5693 -0.8221 817.6273 488.6624)" class="st8" width="55.98" height="128.36"/>
	<path class="st9" d="M318.23,302.1c0,0-3.73,1.65-2.48,3.48c6.86,10.08,26.79,42.71,27.79,63.9c1.18,25.05-24.14,32.86-24.14,32.86
		l24.63,35.57l46.02-31.87L318.23,302.1z"/>
	<polygon class="st10" points="318.95,303.36 271.45,283.94 272.92,335.23 	"/>
	<polygon class="st11" points="289.26,291.1 271.89,303.12 271.23,283.62 	"/>
	
		<rect x="335.1" y="414.23" transform="matrix(-0.8221 0.5693 -0.5693 -0.8221 898.5904 551.7968)" class="st12" width="55.98" height="4.1"/>
	
		<rect x="274.54" y="326.77" transform="matrix(-0.8221 0.5693 -0.5693 -0.8221 738.4498 426.9205)" class="st12" width="55.98" height="4.1"/>
	
		<rect x="328.24" y="399.75" transform="matrix(-0.8221 0.5693 -0.5693 -0.8221 880.4349 537.6393)" class="st12" width="55.98" height="13.23"/>
	
		<rect x="304.48" y="307.88" transform="matrix(-0.8221 0.5693 -0.5693 -0.8221 817.6273 488.6624)" class="st13" width="55.98" height="128.36"/>
	<path class="st14" d="M318.95,303.36c0,0,0.73,1.03,1.98,2.86c6.86,10.08,29.21,44.44,30.21,65.64c1.18,25.05-21.69,45-21.69,45
		l16.55,23.9l46.02-31.87L318.95,303.36z"/>
	<line class="st15" x1="292.83" y1="344.34" x2="334.09" y2="403.93"/>
</g>
<path class="st16" d="M413.46,166.41c-0.42,0.42-1.17,0.19-1.28-0.4l-0.64-3.6c-0.04-0.23-0.2-0.43-0.42-0.53l-3.43-1.62
	c-0.56-0.26-0.58-1.01-0.04-1.27l3.39-1.6c0.21-0.11,0.35-0.3,0.38-0.53l0.45-3.6c0.07-0.58,0.8-0.8,1.24-0.38l2.71,2.6
	c0.18,0.17,0.42,0.24,0.66,0.21l3.71-0.61c0.59-0.11,1.08,0.51,0.8,1.02l-1.68,3.22c-0.11,0.2-0.1,0.45,0.01,0.65l1.85,3.23
	c0.3,0.52-0.15,1.13-0.75,1.02l-3.75-0.62c-0.24-0.04-0.48,0.03-0.65,0.2L413.46,166.41L413.46,166.41z M413.46,166.41"/>
<g>
	<g>
		<path class="st1" d="M102.22,302.59l-7.06-8.12c-0.47-0.54-1.13-0.87-1.85-0.92c-0.71-0.05-1.42,0.18-1.96,0.65
			c-1.13,0.98-1.24,2.68-0.26,3.8l7.06,8.12l-8.12,7.06c-1.12,0.98-1.24,2.68-0.27,3.8c0.98,1.13,2.68,1.24,3.8,0.26l8.12-7.06
			l7.06,8.12c0.47,0.54,1.13,0.87,1.85,0.92c0.71,0.05,1.42-0.18,1.96-0.65c1.13-0.98,1.24-2.68,0.26-3.8l-7.06-8.12l8.12-7.06
			c0.54-0.47,0.87-1.13,0.92-1.85c0.05-0.71-0.18-1.42-0.65-1.96c-0.98-1.13-2.68-1.24-3.8-0.26L102.22,302.59z M102.22,302.59"/>
	</g>
</g>
</svg>
