<svg id="图层_2" data-name="图层 2" xmlns="http://www.w3.org/2000/svg" xmlns:xlink="http://www.w3.org/1999/xlink" width="363.31" height="260.481" viewBox="0 0 363.31 260.481">
  <defs>
    <style>
      .cls-1, .cls-12, .cls-15, .cls-4, .cls-6, .cls-7 {
        fill: none;
      }

      .cls-2 {
        fill: #aabeff;
        opacity: 0.5;
      }

      .cls-3 {
        fill: #e6f1ff;
        opacity: 0.27;
      }

      .cls-4, .cls-6, .cls-7 {
        stroke: #dbdbdb;
      }

      .cls-12, .cls-15, .cls-4, .cls-6, .cls-7 {
        stroke-linecap: round;
        stroke-linejoin: round;
      }

      .cls-4 {
        stroke-width: 2.78px;
      }

      .cls-5 {
        fill: url(#linear-gradient);
      }

      .cls-6 {
        stroke-width: 1.87px;
      }

      .cls-7 {
        stroke-width: 2.76px;
      }

      .cls-8 {
        fill: #a4d3ff;
        stroke: #8fa0ff;
        stroke-width: 1.38px;
      }

      .cls-10, .cls-8 {
        stroke-miterlimit: 10;
      }

      .cls-13, .cls-9 {
        fill: #7f95f5;
      }

      .cls-9 {
        opacity: 0.38;
      }

      .cls-10 {
        fill: #e0edfc;
        stroke: #87ceff;
        stroke-width: 1.43px;
      }

      .cls-11 {
        fill: #b5c5ff;
        opacity: 0.22;
      }

      .cls-12 {
        stroke: #fff;
        stroke-width: 3.42px;
        opacity: 0.57;
      }

      .cls-14 {
        fill: #d1e6ff;
      }

      .cls-15 {
        stroke: #bacaff;
        stroke-width: 3.89px;
        opacity: 0.65;
      }

      .cls-16 {
        clip-path: url(#clip-path);
      }

      .cls-17 {
        fill: #ccdaff;
      }
    </style>
    <linearGradient id="linear-gradient" x1="0.877" y1="0.886" x2="0.377" y2="0.02" gradientUnits="objectBoundingBox">
      <stop offset="0" stop-color="#94fffb" stop-opacity="0.2"/>
      <stop offset="0.43" stop-color="#89c8f8" stop-opacity="0.251"/>
      <stop offset="0.96" stop-color="#7f96f5" stop-opacity="0.302"/>
      <stop offset="0.97" stop-color="#7f96f5" stop-opacity="0.431"/>
      <stop offset="0.98" stop-color="#7f95f5" stop-opacity="0.678"/>
      <stop offset="0.99" stop-color="#7f95f5" stop-opacity="0.851"/>
      <stop offset="1" stop-color="#7f95f5" stop-opacity="0.961"/>
      <stop offset="1" stop-color="#7f95f5"/>
    </linearGradient>
    <clipPath id="clip-path">
      <path id="路径_298" data-name="路径 298" class="cls-1" d="M353.38,54.042l24.992,7.744L385.456,39.1,360.473,31.36Z" transform="translate(-353.38 -31.36)"/>
    </clipPath>
  </defs>
  <g id="加载失败" transform="translate(0 0)">
    <ellipse id="椭圆_214" data-name="椭圆 214" class="cls-2" cx="17.697" cy="17.908" rx="17.697" ry="17.908" transform="translate(0 175.921) rotate(-45)"/>
    <path id="路径_280" data-name="路径 280" class="cls-3" d="M183.64,177.853l-9.962,10.833a9.7,9.7,0,0,1-14.288-.119l-1.576-1.778-5.26-4.885c-13.133-9.9-29.675-6.1-41.011,5.8L65.17,238.256l.66,7.955,2.465,5.5,5.737,2.9L203.161,244Z" transform="translate(1.932 -14.721)"/>
    <path id="路径_281" data-name="路径 281" class="cls-4" d="M65.17,238.356,111.543,187.8a32.388,32.388,0,0,1,42.936-3.528h0l7.524,5.9a8.312,8.312,0,0,0,11.236-.916l10.4-11.282" transform="translate(1.932 -14.848)"/>
    <path id="路径_282" data-name="路径 282" class="cls-5" d="M94.125,91.848a17.248,17.248,0,1,0,15.781-18.613A17.248,17.248,0,0,0,94.125,91.848Z" transform="translate(-0.482 -6.111)"/>
    <path id="路径_283" data-name="路径 283" class="cls-6" d="M94.125,91.848a17.248,17.248,0,1,0,15.781-18.613A17.248,17.248,0,0,0,94.125,91.848Z" transform="translate(-0.482 -6.111)"/>
    <path id="路径_284" data-name="路径 284" class="cls-4" d="M201.87,232.143l-127.6,10.484a9.027,9.027,0,0,1-9.733-8.248L49.747,54.323A9.018,9.018,0,0,1,58,44.59l118.8-9.76L202.5,108.146,177.52,149.625Z" transform="translate(3.223 -2.907)"/>
    <path id="路径_285" data-name="路径 285" class="cls-3" d="M199.857,163.2,235.5,140.637c11.914-7.882,28.575-5.581,38.308,5.792l44.97,57.388L312.9,244.673l-2.7,5.279-4.472,2.337-99.894-13.261-6.562-75.369,1.475-1.146" transform="translate(-9.271 -11.359)"/>
    <path id="路径_286" data-name="路径 286" class="cls-7" d="M200.91,162.576,233.9,142.653c11.236-9.385,28.823-6.36,38.546,5.013l46.217,56.188" transform="translate(-9.408 -11.45)"/>
    <path id="路径_287" data-name="路径 287" class="cls-4" d="M330.483,46.912,231.359,33l7.927,80.648L206.67,147.493l.44,5.041L214,231.239l89.345,12.546a9.027,9.027,0,0,0,10.173-7.707l6.69-48.517L338.191,57.084a9.018,9.018,0,0,0-7.707-10.173Z" transform="translate(-9.889 -2.754)"/>
    <path id="路径_288" data-name="路径 288" class="cls-8" d="M274.56,161H188.275A17.266,17.266,0,0,0,171,178.284v77.688a17.266,17.266,0,0,0,17.257,17.266h86.3a17.275,17.275,0,0,0,17.266-17.266V178.284A17.275,17.275,0,0,0,274.56,161Z" transform="translate(-6.909 -13.448)"/>
    <path id="路径_289" data-name="路径 289" class="cls-9" d="M171,246.268v11.538a17.266,17.266,0,0,0,17.257,17.266h86.3a17.275,17.275,0,0,0,17.266-17.266V183.39s-13.463,26.88-45.41,44.366S171,246.268,171,246.268Z" transform="translate(-6.909 -15.318)"/>
    <rect id="矩形_767" data-name="矩形 767" class="cls-10" width="103.578" height="94.954" rx="9.42" transform="translate(172.733 156.204)"/>
    <path id="路径_290" data-name="路径 290" class="cls-11" d="M252.436,228.17c25.1-11.969,31.581-34.23,31.581-34.23v64.784a8.624,8.624,0,0,1-8.633,8.633H189.063a8.624,8.624,0,0,1-8.633-8.633l.513-11.795C198.557,244.73,227.343,240.148,252.436,228.17Z" transform="translate(-7.697 -16.2)"/>
    <path id="路径_291" data-name="路径 291" class="cls-12" d="M186,193.431v-8.578a8.624,8.624,0,0,1,8.633-8.633h36.493" transform="translate(-8.162 -14.719)"/>
    <path id="路径_292" data-name="路径 292" class="cls-13" d="M264.413,189.28a8.624,8.624,0,1,0,6.107,2.526A8.633,8.633,0,0,0,264.413,189.28Z" transform="translate(-13.992 -15.81)"/>
    <path id="路径_293" data-name="路径 293" class="cls-13" d="M207.9,206.546a8.624,8.624,0,1,0-6.107-2.526,8.633,8.633,0,0,0,6.107,2.526Z" transform="translate(-9.271 -15.81)"/>
    <path id="路径_294" data-name="路径 294" class="cls-13" d="M266.143,245.37a61.449,61.449,0,0,0-64.72,0,4.628,4.628,0,0,0-1.521,5.994,3.794,3.794,0,0,0,5.444,1.668,54.071,54.071,0,0,1,56.866,0,3.666,3.666,0,0,0,1.961.568,3.941,3.941,0,0,0,3.492-2.245A4.637,4.637,0,0,0,266.143,245.37Z" transform="translate(-9.28 -19.727)"/>
    <path id="路径_295" data-name="路径 295" class="cls-14" d="M366.576,74.628l-1.274-.55.541-1.246a2.245,2.245,0,0,0-4.124-1.769l-.541,1.256-1.274-.55a2.19,2.19,0,1,0-1.723,4.023l1.274.55-.532,1.246a2.239,2.239,0,1,0,4.115,1.769l.541-1.246,1.274.55a2.193,2.193,0,0,0,1.723-4.032Z" transform="translate(-22.429 -5.827)"/>
    <path id="路径_296" data-name="路径 296" class="cls-14" d="M40.8,5.847,36.219.6A1.732,1.732,0,0,0,35.037,0,1.778,1.778,0,0,0,33.772.43a1.732,1.732,0,0,0-.165,2.456L38.19,8.138,32.948,12.72a1.741,1.741,0,1,0,2.282,2.621l5.251-4.582,4.582,5.251a1.718,1.718,0,1,0,2.584-2.264L43.065,8.5l5.251-4.582a1.742,1.742,0,1,0-2.273-2.639Z" transform="translate(4.681 0.003)"/>
    <ellipse id="椭圆_215" data-name="椭圆 215" class="cls-15" cx="9.76" cy="9.76" rx="9.76" ry="9.76" transform="translate(29.601 178.868)"/>
    <g id="组_1586" data-name="组 1586" class="cls-16" transform="translate(331.234 28.743)">
      <path id="路径_297" data-name="路径 297" class="cls-17" d="M367.477,57.764a1.375,1.375,0,0,1-2.291-.706l-1.146-6.415a1.283,1.283,0,0,0-.751-.916l-6.149-2.96a1.237,1.237,0,0,1-.064-2.264l6.067-2.85a1.228,1.228,0,0,0,.687-.916l.8-6.415a1.3,1.3,0,0,1,2.218-.687l4.848,4.646a1.475,1.475,0,0,0,1.182.367L379.52,37.6a1.292,1.292,0,0,1,1.439,1.833l-3.006,5.737a1.173,1.173,0,0,0,0,1.164l3.308,5.746a1.246,1.246,0,0,1-1.347,1.833l-6.708-1.1a1.32,1.32,0,0,0-1.164.357l-4.582,4.582Z" transform="translate(-353.63 -31.517)"/>
    </g>
  </g>
</svg>
