<svg xmlns="http://www.w3.org/2000/svg" xmlns:xlink="http://www.w3.org/1999/xlink" viewBox="0 0 336.41 302.92"><defs><style>.cls-1,.cls-11,.cls-12,.cls-14,.cls-16,.cls-21,.cls-3,.cls-8{fill:none;}.cls-2{fill:#e6f1ff;opacity:0.27;}.cls-3,.cls-4{stroke:#dbdbdb;}.cls-11,.cls-14,.cls-16,.cls-3,.cls-4,.cls-8{stroke-linecap:round;stroke-linejoin:round;}.cls-3{stroke-width:2.96px;}.cls-4{fill:#d1e5ff;stroke-width:1.97px;}.cls-13,.cls-5{fill:#a4d3ff;}.cls-12,.cls-13,.cls-5{stroke:#8fa0ff;}.cls-12,.cls-13,.cls-21,.cls-5{stroke-miterlimit:10;}.cls-5{stroke-width:1.3px;}.cls-6{clip-path:url(#clip-path);}.cls-15,.cls-7{fill:#749af2;}.cls-7{fill-opacity:0.5;}.cls-14,.cls-8{stroke:#fff;opacity:0.57;}.cls-8{stroke-width:3.23px;}.cls-9{fill:#aabeff;opacity:0.5;}.cls-10{fill:#b5c5ff;opacity:0.48;}.cls-11{stroke:#749af2;stroke-width:3px;opacity:0.69;}.cls-12,.cls-13{stroke-width:1.78px;}.cls-14{stroke-width:2.57px;}.cls-15{opacity:0.49;}.cls-16{stroke:#aabeff;stroke-width:4px;}.cls-17{clip-path:url(#clip-path-2);}.cls-18{fill:#ccdaff;}.cls-19{fill:#d1e6ff;}.cls-20{fill:#b0bcff;}.cls-21{stroke:#d3f0ff;stroke-width:0.71px;}</style><clipPath id="clip-path"><path class="cls-1" d="M197.28,263.34c-8.12-1.32-16.13-1.93-11.12-19.55,5.11-17.94,17-32.76,34.43-37.85a24.13,24.13,0,0,0,17.35-23.56A23.63,23.63,0,0,0,223.86,161a24.07,24.07,0,0,0-33.49,17.07,14.9,14.9,0,0,1-29.18-6,53.8,53.8,0,1,1,67.69,62.48,18.69,18.69,0,0,0-13.54,14.75C211.7,269.48,207,264.94,197.28,263.34Z"/></clipPath><clipPath id="clip-path-2"><rect class="cls-1" x="323.16" y="166.55" width="13.32" height="14.61" transform="translate(65.81 437.11) rotate(-72.71)"/></clipPath></defs><g id="图层_2" data-name="图层 2"><g id="找不到相关搜索内容"><path class="cls-2" d="M241.47,214.94s-75.24,18.82-115.15-14.85S62.4,105.85,62.4,105.85l.46,129.52,10,21.25s14.3,9.7,19.61,8.77c35.81-6.28,34.63-33.62,34.63-33.62l115.39-1Z"/><path class="cls-2" d="M198,28.43l-.54-12.24a6.77,6.77,0,0,0-6.93-6.54L35.38,16.23a6.65,6.65,0,0,0-6.24,7.1L47.94,234.2a6.78,6.78,0,0,0,6.93,6.54h9L62.4,228.49l.07-196.27a2.94,2.94,0,0,1,3.23-2.63Z"/><path class="cls-3" d="M199.75,28.43l-2.33-12.24c-1.21-3.59-3.29-6.7-6.93-6.54L35.38,16.23a6.65,6.65,0,0,0-6.24,7.1l18.44,210a6.78,6.78,0,0,0,6.92,6.54l9.13-.27"/><path class="cls-3" d="M242.48,46.83V33.88a5.54,5.54,0,0,0-5.62-5.45H68a5.53,5.53,0,0,0-5.61,5.45V228.49c0,20.09,11,36.9,34.35,36.9"/><line class="cls-3" x1="242.48" y1="230.8" x2="242.48" y2="69.64"/><path class="cls-3" d="M242.48,69.07h57.4A11.29,11.29,0,0,0,311.33,58h0a11.29,11.29,0,0,0-11.45-11.12H183.06A11.29,11.29,0,0,0,171.6,58h0a11.29,11.29,0,0,0,11.46,11.12h59.42"/><ellipse class="cls-4" cx="298.39" cy="56" rx="5.2" ry="5.05"/><line class="cls-3" x1="294.9" y1="60.35" x2="291.17" y2="65.01"/><path class="cls-3" d="M92.46,265.39H236.11a33.62,33.62,0,0,0,33.62-33.62H126.08a33.62,33.62,0,0,1-33.62,33.62Z"/><line class="cls-3" x1="217.57" y1="84.51" x2="89.36" y2="84.51"/><line class="cls-3" x1="217.57" y1="102.93" x2="89.36" y2="102.93"/><line class="cls-3" x1="217.57" y1="121.36" x2="89.36" y2="121.36"/><line class="cls-3" x1="217.57" y1="139.78" x2="89.36" y2="139.78"/><line class="cls-3" x1="216.79" y1="158.21" x2="88.58" y2="158.21"/><path class="cls-5" d="M197.28,263.34c-8.12-1.32-16.13-1.93-11.12-19.55,5.11-17.94,17-32.76,34.43-37.85a24.13,24.13,0,0,0,17.35-23.56A23.63,23.63,0,0,0,223.86,161a24.07,24.07,0,0,0-33.49,17.07,14.9,14.9,0,0,1-29.18-6,53.8,53.8,0,1,1,67.69,62.48,18.69,18.69,0,0,0-13.54,14.75C211.7,269.48,207,264.94,197.28,263.34Z"/><g class="cls-6"><path class="cls-7" d="M267.53,186.71c2.87,6.55,0,1.55,0,8.84.06,24.44-18.72,44.5-42,51.24A18.69,18.69,0,0,0,212,261.54c-3.64,20.19-8.33,15.65-18,14.06-8.13-1.33-16.14-1.94-11.13-19.55,5.11-18,2.75-11.05,5.63-13.78,0,0,.78-10.26,17-10.35,9.78,0,27-1,40.27-10.95C261.34,209.24,267.53,186.71,267.53,186.71Z"/></g><path class="cls-8" d="M170,164.75A48.82,48.82,0,0,1,234.7,139a46,46,0,0,1,5.05,2.56"/><path class="cls-9" d="M192.64,171.7a23.8,23.8,0,0,0-2.27,6.37,14.9,14.9,0,0,1-29.2-.08s8.53,7.58,18.4,3.88S192.64,171.7,192.64,171.7Z"/><path class="cls-10" d="M263.2,161.38a52.24,52.24,0,0,1,4.48,21,53.62,53.62,0,0,1-38.8,52.19,18.69,18.69,0,0,0-13.54,14.75c-3.64,20.19-8.33,15.65-18.06,14-8.12-1.32-16.13-1.93-11.12-19.55,5.11-17.94,15.61-28,23.35-31,0,0,24.85,2.58,43.72-19.26C264.32,180.68,263.2,161.38,263.2,161.38Z"/><path class="cls-11" d="M262.68,192a53.31,53.31,0,0,1-25,33.24"/><path class="cls-12" d="M197.28,263.34c-8.12-1.32-16.13-1.93-11.12-19.55,5.11-17.94,17-32.76,34.43-37.85a24.13,24.13,0,0,0,17.35-23.56A23.63,23.63,0,0,0,223.86,161a24.07,24.07,0,0,0-33.49,17.07,14.9,14.9,0,0,1-29.18-6,53.8,53.8,0,1,1,67.69,62.48,18.69,18.69,0,0,0-13.54,14.75C211.7,269.48,207,264.94,197.28,263.34Z"/><path class="cls-13" d="M176.73,284.13a14.9,14.9,0,1,0,9.9-11.13,14.89,14.89,0,0,0-9.9,11.13Z"/><path class="cls-14" d="M192.37,276.08a11.9,11.9,0,0,0-11.81,9.48h0"/><path class="cls-15" d="M178.43,294.6a14.89,14.89,0,0,0,25.92-14.68s0,9.58-7.47,14.36S178.43,294.6,178.43,294.6Z"/><path class="cls-12" d="M176.76,284.05a14.89,14.89,0,1,0,9.89-11.13,14.89,14.89,0,0,0-9.89,11.13Z"/><circle class="cls-16" cx="310.39" cy="115.03" r="12.9"/><circle class="cls-9" cx="299.2" cy="127.99" r="19.5"/><g class="cls-17"><path class="cls-18" d="M328.6,180a.77.77,0,0,1-1.28-.4l-.64-3.59a.74.74,0,0,0-.42-.54l-3.43-1.61a.7.7,0,0,1,0-1.27l3.39-1.6a.7.7,0,0,0,.38-.53l.45-3.6a.72.72,0,0,1,1.24-.38l2.7,2.6a.82.82,0,0,0,.67.2l3.7-.6a.73.73,0,0,1,.81,1l-1.68,3.21a.7.7,0,0,0,0,.66l1.85,3.22a.7.7,0,0,1-.75,1l-3.75-.62a.74.74,0,0,0-.64.2L328.6,180Z"/></g><polygon class="cls-19" points="10.42 223.31 10.95 210.5 0 182.6 13.34 206.78 21.12 209.26 20.36 221.17 31.55 249.97 17.52 224.92 10.42 223.31"/><path class="cls-20" d="M7,12.13a.56.56,0,0,0,0,.08.59.59,0,0,0,.24.74l.52.27A.5.5,0,0,0,8.44,13a.56.56,0,0,0-.24-.74L7.68,12a.48.48,0,0,0-.64.16Z"/><path class="cls-21" d="M22.67,5.14l-2.44,5a.59.59,0,0,0,0,.52L22,14.08l-3.35-.66-1.13,1.22a.47.47,0,0,0-.45.15l-2.89,3.12-.94-6.43L9.12,9.29l3.06-1.55a.55.55,0,0,0,.28-.41l.21-1.61.48-.24.43-3.32L17,5.84a.49.49,0,0,0,.46.17Z"/><path class="cls-18" d="M12.38.22a.5.5,0,0,0-.09.24l-.83,6.41L6,9.66a.54.54,0,0,0-.29.49.58.58,0,0,0,.3.5l1.32.71a.5.5,0,0,0,.7-.24.58.58,0,0,0-.25-.74l-.37-.2,4.77-2.43a.53.53,0,0,0,.28-.41l.72-5.6,3.77,4.12A.51.51,0,0,0,17.4,6l5.27-.87-2.45,5a.59.59,0,0,0,0,.52l2.53,5-5.28-1a.5.5,0,0,0-.46.15l-3.7,4-.81-5.62a.59.59,0,0,0-.29-.42L10.83,12a.51.51,0,0,0-.7.24.58.58,0,0,0,.25.74l1.14.62L12.45,20a.55.55,0,0,0,.36.45.48.48,0,0,0,.53-.13l4.24-4.58L23.63,17a.49.49,0,0,0,.51-.21.57.57,0,0,0,0-.58l-2.9-5.79,2.8-5.71a.58.58,0,0,0,0-.58.51.51,0,0,0-.51-.22l-6,1L13.17.17A.53.53,0,0,0,12.63,0a.55.55,0,0,0-.25.2Z"/></g></g></svg>