<svg xmlns="http://www.w3.org/2000/svg" xmlns:xlink="http://www.w3.org/1999/xlink" viewBox="0 0 365.29 327.76"><defs><style>.cls-1,.cls-15,.cls-19,.cls-4,.cls-5,.cls-6,.cls-8,.cls-9{fill:none;}.cls-2{fill:#d1e6ff;}.cls-3{fill:#e6f1ff;opacity:0.27;}.cls-4,.cls-5,.cls-6,.cls-8{stroke:#dbdbdb;}.cls-10,.cls-15,.cls-4,.cls-5,.cls-6,.cls-8,.cls-9{stroke-linecap:round;stroke-linejoin:round;}.cls-4{stroke-width:3.35px;}.cls-5{stroke-width:3.46px;}.cls-6{stroke-width:3.41px;}.cls-7{fill:url(#未命名的渐变_39);}.cls-8,.cls-9{stroke-width:3px;}.cls-9{stroke:#fff;}.cls-10{fill:#a4d3ff;stroke:#8fa0ff;stroke-width:2.05px;}.cls-11,.cls-14{fill:#7f95f5;}.cls-11{opacity:0.38;}.cls-12{fill:#e0edfc;stroke:#87ceff;stroke-width:1.26px;}.cls-12,.cls-19{stroke-miterlimit:10;}.cls-13{fill:#b5c5ff;opacity:0.22;}.cls-15{stroke:#dbeeff;stroke-width:3.34px;opacity:0.35;}.cls-16{fill:#aabeff;}.cls-16,.cls-19{opacity:0.5;}.cls-17{clip-path:url(#clip-path);}.cls-18{fill:#ccdaff;}.cls-19{stroke:#aabeff;stroke-width:3.83px;}.cls-20{clip-path:url(#clip-path-2);}</style><linearGradient id="未命名的渐变_39" x1="278.27" y1="35.47" x2="314.8" y2="35.47" gradientUnits="userSpaceOnUse"><stop offset="0" stop-color="#94fffb" stop-opacity="0.2"/><stop offset="0.43" stop-color="#89c8f8" stop-opacity="0.25"/><stop offset="0.96" stop-color="#7f96f5" stop-opacity="0.3"/><stop offset="0.97" stop-color="#7f96f5" stop-opacity="0.43"/><stop offset="0.98" stop-color="#7f95f5" stop-opacity="0.68"/><stop offset="0.99" stop-color="#7f95f5" stop-opacity="0.85"/><stop offset="1" stop-color="#7f95f5" stop-opacity="0.96"/><stop offset="1" stop-color="#7f95f5"/></linearGradient><clipPath id="clip-path" transform="translate(0 -3.4)"><polygon class="cls-1" points="29.89 147.73 14.77 152.47 10.51 138.59 25.63 133.85 29.89 147.73"/></clipPath><clipPath id="clip-path-2" transform="translate(0 -3.4)"><polygon class="cls-1" points="331.64 21.36 355.19 37.48 369.9 16.12 346.34 0 331.64 21.36"/></clipPath></defs><g id="图层_2" data-name="图层 2"><g id="提交失败"><path class="cls-2" d="M338.8,190.37H328a2.69,2.69,0,1,0,0,5.38H338.8v10.76a2.7,2.7,0,1,0,5.39,0V195.75H355a2.65,2.65,0,0,0,1.9-.78,2.69,2.69,0,0,0-1.9-4.6H344.19V179.61a2.7,2.7,0,0,0-2.7-2.7,2.69,2.69,0,0,0-2.69,2.7Z" transform="translate(0 -3.4)"/><path class="cls-3" d="M72.85,157.17s38.6,58.83,98.29,75.6,121.43,10.45,121.43,10.45l-2.74,49.21-6.11,8.5-86.85-2.15-3.54-2.48-87.28,8.46a13.45,13.45,0,0,1-10.47-3.55h0a10.84,10.84,0,0,1-3.35-6.42Z" transform="translate(0 -3.4)"/><path class="cls-4" d="M281.61,28.34l-73.08-3.55,20.59,57L231.38,88,194.5,138.68,224,239.22l-28.8,59,80.94,3.94a11.86,11.86,0,0,0,12.41-11.26l11-233.8" transform="translate(0 -3.4)"/><line class="cls-5" x1="202.04" y1="155.09" x2="257.56" y2="157.79"/><line class="cls-5" x1="261.39" y1="79.22" x2="229.14" y2="77.93"/><line class="cls-5" x1="260.1" y1="105.6" x2="218.79" y2="103.59"/><line class="cls-5" x1="256.34" y1="183.03" x2="207.8" y2="180.66"/><line class="cls-5" x1="258.83" y1="131.69" x2="199.23" y2="128.79"/><path class="cls-4" d="M159,20.49l35.81,61.34-26.77,61,50,95.79L201.56,291l-96.37,14.26a11.84,11.84,0,0,1-13.45-10L55.13,47.84a11.84,11.84,0,0,1,10-13.45L155.37,21Z" transform="translate(0 -3.4)"/><line class="cls-6" x1="181.76" y1="56.04" x2="96.14" y2="68.71"/><line class="cls-6" x1="191.96" y1="81.32" x2="100.02" y2="94.92"/><line class="cls-6" x1="181.09" y1="109.72" x2="103.89" y2="121.14"/><line class="cls-6" x1="167.92" y1="138.45" x2="107.77" y2="147.35"/><line class="cls-6" x1="180.27" y1="163.41" x2="111.65" y2="173.57"/><circle class="cls-7" cx="296.53" cy="35.47" r="18.26"/><circle class="cls-8" cx="296.53" cy="35.47" r="18.26"/><line class="cls-9" x1="289.57" y1="28.46" x2="302.64" y2="41.52"/><line class="cls-9" x1="302.64" y1="28.46" x2="289.57" y2="41.52"/><path class="cls-10" d="M228.76,179.37a75.41,75.41,0,0,0-67,115.09l-6.32,19.3a5.55,5.55,0,0,0,6.3,7.16l20.43-4.74h0s14.81,12.89,40.77,13.9a75.41,75.41,0,0,0,5.84-150.71Z" transform="translate(0 -3.4)"/><path class="cls-11" d="M287.23,210.92c9.81,11.1,14.46,34,14,46.72a75.47,75.47,0,0,1-78.27,72.44c-26-1-40.77-13.9-40.77-13.9h0l-20.43,4.74a5.55,5.55,0,0,1-6.3-7.16l6.32-19.3a74.75,74.75,0,0,1-9.43-22.91s43.46,7.11,69.48-2.32C261.5,254.83,287.23,210.92,287.23,210.92Z" transform="translate(0 -3.4)"/><path class="cls-12" d="M228.21,193.5a61.27,61.27,0,1,1-63.6,58.85,61.27,61.27,0,0,1,63.6-58.85Z" transform="translate(0 -3.4)"/><path class="cls-13" d="M166.06,268.25c.19.82-.19,2.18.6,2.43,7.18,2.29,33.59,6.83,63.51-.6S282,230.17,282,230.17a61.29,61.29,0,1,1-115.33,40.51" transform="translate(0 -3.4)"/><path class="cls-14" d="M190.22,288.05a3.85,3.85,0,0,0,7.7.3,26.15,26.15,0,0,1,45.29-16.75l.17.17a26,26,0,0,1,6.73,18.6,3.85,3.85,0,1,0,7.7.3,33.62,33.62,0,0,0-8.75-24.07l-.24-.27a34.17,34.17,0,0,0-23.58-10.85,33.67,33.67,0,0,0-24.34,9,34.41,34.41,0,0,0-10.68,23.58Z" transform="translate(0 -3.4)"/><path class="cls-15" d="M160.4,228c14.49-37.15,56.66-53.35,95.22-38.23" transform="translate(0 -3.4)"/><path class="cls-14" d="M256.5,225.74a9.42,9.42,0,1,0,9,9.81,9.41,9.41,0,0,0-9-9.81Z" transform="translate(0 -3.4)"/><path class="cls-14" d="M199.23,242.12a9.42,9.42,0,1,0-9-9.81,9.4,9.4,0,0,0,9,9.81Z" transform="translate(0 -3.4)"/><circle class="cls-16" cx="23.08" cy="86.67" r="23.08"/><g class="cls-17"><path class="cls-18" d="M21.51,149.9l-2.77-2.84a.81.81,0,0,0-.7-.22l-4.06.68a.76.76,0,0,1-.81-1.12l2-3.52a.72.72,0,0,0,0-.71l-1.8-3.52a.79.79,0,0,1,.87-1.11l4,.66A.87.87,0,0,0,19,138l2.93-2.84a.79.79,0,0,1,1.35.42l.47,3.93a.77.77,0,0,0,.41.58l3.67,1.74a.76.76,0,0,1,0,1.38L24.05,145a.82.82,0,0,0-.45.58l-.7,3.93a.83.83,0,0,1-1.39.43Z" transform="translate(0 -3.4)"/></g><circle class="cls-19" cx="40.84" cy="103.36" r="15.33"/><path class="cls-2" d="M339.5,43.64l-1.15-1,1-1.13a2.44,2.44,0,0,0-3.73-3.16l-1,1.12-1.15-1a2.4,2.4,0,1,0-3.1,3.65l1.15,1-1,1.13a2.45,2.45,0,0,0,3.73,3.17l1-1.13,1.16,1a2.39,2.39,0,1,0,3.09-3.64Z" transform="translate(0 -3.4)"/><g class="cls-20"><path class="cls-18" d="M344.93,29.51A1.5,1.5,0,0,1,342.77,28l.88-7.06a1.46,1.46,0,0,0-.48-1.23l-5.48-5a1.35,1.35,0,0,1,.66-2.38l7.24-1a1.35,1.35,0,0,0,1-.77l2.9-6.43a1.43,1.43,0,0,1,2.54,0l3.55,6.4a1.61,1.61,0,0,0,1.12.77l7.27,1a1.41,1.41,0,0,1,.91,2.36l-5,5a1.28,1.28,0,0,0-.34,1.22L361.17,28a1.35,1.35,0,0,1-2,1.47l-6.64-3.3a1.4,1.4,0,0,0-1.32,0l-6.29,3.34Z" transform="translate(0 -3.4)"/></g></g></g></svg>