<svg xmlns="http://www.w3.org/2000/svg" xmlns:xlink="http://www.w3.org/1999/xlink" viewBox="0 0 319.2 347.1"><defs><style>.cls-1,.cls-11,.cls-12,.cls-18,.cls-19,.cls-3,.cls-4,.cls-5{fill:none;}.cls-2{fill:#e6f1ff;opacity:0.27;}.cls-3,.cls-4,.cls-5{stroke:#dbdbdb;}.cls-12,.cls-18,.cls-19,.cls-3,.cls-4,.cls-5{stroke-linecap:round;stroke-linejoin:round;}.cls-3{stroke-width:2.96px;}.cls-4{stroke-width:3.13px;}.cls-18,.cls-19,.cls-5{stroke-width:3px;}.cls-6{fill:url(#未命名的渐变_7);}.cls-7,.cls-9{fill:#e0edfc;}.cls-11,.cls-7{stroke:#87ceff;stroke-miterlimit:10;stroke-width:1.61px;}.cls-8{fill:#a4d3ff;}.cls-10{fill:#b5c5ff;opacity:0.22;}.cls-12{stroke:#fff;stroke-width:3.46px;opacity:0.56;}.cls-13{fill:#aabeff;opacity:0.5;}.cls-14{clip-path:url(#clip-path);}.cls-15{fill:#ccdaff;}.cls-16{fill:#bacaff;opacity:0.65;}.cls-17{fill:#d1e6ff;}.cls-18,.cls-19{stroke:#7f95f5;}.cls-19{stroke-dasharray:9.89 9.89;}</style><linearGradient id="未命名的渐变_7" x1="102.54" y1="33.51" x2="83.33" y2="52.72" gradientUnits="userSpaceOnUse"><stop offset="0" stop-color="#94fffb" stop-opacity="0.2"/><stop offset="0.44" stop-color="#89c8f8" stop-opacity="0.25"/><stop offset="1" stop-color="#7f96f5" stop-opacity="0.3"/></linearGradient><clipPath id="clip-path"><polygon class="cls-1" points="283.84 83.07 269.01 77.49 274.2 63.93 289.03 69.5 283.84 83.07"/></clipPath></defs><g id="图层_2" data-name="图层 2"><g id="提交成功"><path class="cls-2" d="M59.88,152.46s12.65,46.83,62.71,86c41.17,32.18,121,31,121,31l1,15.87-115.39,1L67.7,285.15,62,281.89l-2.08-5.76V152.46"/><line class="cls-3" x1="211.19" y1="86.53" x2="82.98" y2="86.53"/><line class="cls-3" x1="211.19" y1="109.53" x2="82.98" y2="109.53"/><line class="cls-3" x1="211.19" y1="132.53" x2="82.98" y2="132.53"/><line class="cls-3" x1="211.19" y1="155.53" x2="82.98" y2="155.53"/><line class="cls-3" x1="211.19" y1="178.53" x2="82.98" y2="178.53"/><path class="cls-4" d="M58.08,253.94H40.53a7.78,7.78,0,0,1-7.79-7.78V24.7a7.79,7.79,0,0,1,7.79-7.78H204.66a7.78,7.78,0,0,1,7.78,7.78V38.49"/><path class="cls-5" d="M313.63,149.33l-36.27-36.27a18.42,18.42,0,0,0-1.54-1.73q-4.6-4.6-9.22-4-3.62.41-7.22,4c-.52.52-1,1-1.4,1.54l-36.41,36.42q-8.15,8.13,0,16.28t16.27,0L256,147.42V222.6q0,11.52,11.5,11.51T279,222.6V147.27l18.34,18.33q8.13,8.15,16.27,0T313.63,149.33Z"/><path class="cls-6" d="M84.81,41.11v-2.9c0-4.9,3.07-8.86,6.82-8.85s6.77,4,6.75,8.91l-.06,14.21c0,2.94-1.84,5.32-4.09,5.31s-4.06-2.4-4-5.35l.06-14.2c0-1,.61-1.78,1.36-1.77A1.61,1.61,0,0,1,93,38.25l-.06,14.2,2.72,0,0-14.21c0-2.94-1.8-5.34-4-5.35s-4.09,2.37-4.1,5.32l-.06,14.2c0,4.91,3,8.89,6.75,8.91s6.8-4,6.82-8.85l.06-14.21c0-6.86-4.2-12.45-9.45-12.47S82.13,31.34,82.1,38.2v2.9Z"/><path class="cls-3" d="M234.34,169.67V276.13a9,9,0,0,1-9,9H68.89a9,9,0,0,1-9-9V50.71a9,9,0,0,1,9-9H225.33a9,9,0,0,1,9,9v84.72"/><path class="cls-7" d="M186.48,287.89a9.21,9.21,0,0,1,4,1.16l53.83,34.4,23.78-130.72-146.64,52.1,39.63,25.6c2,1.4,3.64,3.75,3.64,6l2,30,15.19-17.14.66-.29a6.14,6.14,0,0,1,4-1.11Z"/><polygon class="cls-8" points="268.06 192.73 164.01 273.82 166.67 306.43 186.48 287.89 268.06 192.73"/><polygon class="cls-9" points="244.28 323.45 191.12 289.48 186.48 287.89 268.06 192.73 244.28 323.45"/><path class="cls-10" d="M186.48,287.89s22.12,15.1,42.94,1.22c23.85-15.91,28.43-40.23,28.43-40.23l-13.57,74.57Z"/><path class="cls-11" d="M186.48,287.89c1.33.06,57.8,35.56,57.8,35.56l23.78-130.72-146.64,52.1,39.63,25.6c2,1.4,3.64,3.75,3.64,6l2,30,15.19-17.14.66-.29a6.14,6.14,0,0,1,4-1.11Z"/><line class="cls-12" x1="156.65" y1="238.37" x2="206.71" y2="221.16"/><ellipse class="cls-13" cx="298.51" cy="30.65" rx="18.65" ry="18.51" transform="translate(67.05 221.63) rotate(-45.39)"/><g class="cls-14"><path class="cls-15" d="M275.91,79.62l-.44-3.94a.81.81,0,0,0-.42-.61l-3.61-2a.75.75,0,0,1,.05-1.38l3.75-1.54a.72.72,0,0,0,.45-.55l.74-3.88a.79.79,0,0,1,1.37-.34l2.75,3a.89.89,0,0,0,.71.27l4.06-.43a.79.79,0,0,1,.8,1.16l-2.05,3.38a.78.78,0,0,0,0,.71l1.82,3.63a.77.77,0,0,1-.89,1.07l-4-.9a.82.82,0,0,0-.72.18l-3,2.66a.83.83,0,0,1-1.36-.51Z"/></g><ellipse class="cls-16" cx="15.47" cy="7.79" rx="7.71" ry="7.8" transform="translate(-1.8 6.39) rotate(-22.09)"/><path class="cls-17" d="M11.22,247.17l-2.54-6.7a1.78,1.78,0,0,0-.94-1,1.81,1.81,0,0,0-1.37-.05,1.78,1.78,0,0,0-1,2.32l2.53,6.7L1.16,251a1.79,1.79,0,1,0,1.27,3.35l6.7-2.54,2.54,6.7A1.79,1.79,0,1,0,15,257.22l-2.54-6.7L19.19,248a1.79,1.79,0,0,0,1-2.32,1.79,1.79,0,0,0-2.31-1Z"/><path class="cls-18" d="M113.64,342.57a27.92,27.92,0,0,0,4.7,1.69"/><path class="cls-19" d="M128.11,345.6a35.13,35.13,0,0,0,20.38-6.4c18.93-13.06,5.17-28.48-2.25-27.17s-15.08,5.08-12.88,16.14,25.63,16.28,37.84,8c7.1-4.8,12.43-14.59,15.65-21.94"/><path class="cls-18" d="M188.73,309.69c1.1-2.85,1.66-4.71,1.66-4.71"/></g></g></svg>